<?xml version="1.0" encoding="utf-8"?>
<!-- Generator: Adobe Illustrator 16.0.0, SVG Export Plug-In . SVG Version: 6.00 Build 0)  -->
<!DOCTYPE svg PUBLIC "-//W3C//DTD SVG 1.1//EN" "http://www.w3.org/Graphics/SVG/1.1/DTD/svg11.dtd">
<svg version="1.1" id="Layer_1" xmlns="http://www.w3.org/2000/svg" xmlns:xlink="http://www.w3.org/1999/xlink" x="0px" y="0px"
	 width="291.826px" height="204.752px" viewBox="0 -7.51 291.826 204.752" enable-background="new 0 -7.51 291.826 204.752"
	 xml:space="preserve">
<title>C:/Users/medua/Dropbox/00Iniciode_Doctorado/Gits/EstimulemaPCB/Estimulema v2.sch - sheet 7</title>
<desc>generated by eagle2svg 1.1, developed by http://www.nicai-systems.de</desc>
<g id="surface0">
	<text transform="matrix(1 0 0 1 188.5581 183.0198)" font-family="'TimesNewRomanPSMT'" font-size="5.544">-Iref</text>
	<text transform="matrix(1 0 0 1 188.5581 13.8206)" font-family="'TimesNewRomanPSMT'" font-size="5.544">+Iref</text>
	<g>
		<title>NET N$36</title>
		
			<line fill="none" stroke="#0DAB76" stroke-width="0.1524" stroke-linecap="round" x1="102.157" y1="31.82" x2="73.357" y2="31.82"/>
		
			<line fill="none" stroke="#0DAB76" stroke-width="0.1524" stroke-linecap="round" x1="73.357" y1="31.82" x2="73.357" y2="96.619"/>
		
			<line fill="none" stroke="#0DAB76" stroke-width="0.1524" stroke-linecap="round" x1="73.357" y1="96.619" x2="73.357" y2="161.419"/>
		
			<line fill="none" stroke="#0DAB76" stroke-width="0.1524" stroke-linecap="round" x1="73.357" y1="161.419" x2="102.157" y2="161.419"/>
		
			<line fill="none" stroke="#0DAB76" stroke-width="0.1524" stroke-linecap="round" x1="37.357" y1="96.619" x2="73.357" y2="96.619"/>
		<circle fill="#0DAB76" cx="73.357" cy="96.619" r="1.44"/>
	</g>
	<g>
		<title>NET N$37</title>
		
			<line fill="none" stroke="#0DAB76" stroke-width="0.1524" stroke-linecap="round" x1="102.157" y1="46.219" x2="94.957" y2="46.219"/>
		
			<line fill="none" stroke="#0DAB76" stroke-width="0.1524" stroke-linecap="round" x1="94.957" y1="46.219" x2="94.957" y2="82.219"/>
		
			<line fill="none" stroke="#0DAB76" stroke-width="0.1524" stroke-linecap="round" x1="94.957" y1="82.219" x2="181.358" y2="82.219"/>
		
			<line fill="none" stroke="#0DAB76" stroke-width="0.1524" stroke-linecap="round" x1="181.358" y1="82.219" x2="217.358" y2="82.219"/>
		
			<line fill="none" stroke="#0DAB76" stroke-width="0.1524" stroke-linecap="round" x1="181.358" y1="53.419" x2="181.358" y2="82.219"/>
		<circle fill="#0DAB76" cx="181.358" cy="82.219" r="1.44"/>
	</g>
	<g>
		<title>NET N$38</title>
		
			<line fill="none" stroke="#0DAB76" stroke-width="0.1524" stroke-linecap="round" x1="217.358" y1="111.02" x2="181.358" y2="111.02"/>
		
			<line fill="none" stroke="#0DAB76" stroke-width="0.1524" stroke-linecap="round" x1="181.358" y1="111.02" x2="94.957" y2="111.02"/>
		
			<line fill="none" stroke="#0DAB76" stroke-width="0.1524" stroke-linecap="round" x1="94.957" y1="111.02" x2="94.957" y2="147.02"/>
		
			<line fill="none" stroke="#0DAB76" stroke-width="0.1524" stroke-linecap="round" x1="94.957" y1="147.02" x2="102.157" y2="147.02"/>
		
			<line fill="none" stroke="#0DAB76" stroke-width="0.1524" stroke-linecap="round" x1="181.358" y1="139.82" x2="181.358" y2="111.02"/>
		<circle fill="#0DAB76" cx="181.358" cy="111.019" r="1.44"/>
	</g>
	<g>
		<title>NET N$39</title>
		
			<line fill="none" stroke="#0DAB76" stroke-width="0.1524" stroke-linecap="round" x1="145.358" y1="39.02" x2="166.958" y2="39.02"/>
	</g>
	<g>
		<title>NET N$40</title>
		
			<line fill="none" stroke="#0DAB76" stroke-width="0.1524" stroke-linecap="round" x1="145.358" y1="154.219" x2="166.958" y2="154.219"/>
	</g>
	<g>
		<title>NET N$41</title>
		
			<line fill="none" stroke="#0DAB76" stroke-width="0.1524" stroke-linecap="round" x1="181.358" y1="24.619" x2="181.358" y2="3.02"/>
		
			<line fill="none" stroke="#0DAB76" stroke-width="0.1524" stroke-linecap="round" x1="181.358" y1="3.02" x2="231.758" y2="3.02"/>
	</g>
	<g>
		<title>NET N$42</title>
		
			<line fill="none" stroke="#0DAB76" stroke-width="0.1524" stroke-linecap="round" x1="181.358" y1="168.619" x2="181.358" y2="186.619"/>
		
			<line fill="none" stroke="#0DAB76" stroke-width="0.1524" stroke-linecap="round" x1="181.358" y1="186.619" x2="231.758" y2="186.619"/>
	</g>
	<g>
		<title>NET N$43</title>
		
			<line fill="none" stroke="#0DAB76" stroke-width="0.1524" stroke-linecap="round" x1="37.357" y1="103.82" x2="51.757" y2="103.82"/>
		
			<line fill="none" stroke="#0DAB76" stroke-width="0.1524" stroke-linecap="round" x1="51.757" y1="103.82" x2="51.757" y2="136.219"/>
	</g>
	<g>
		<title>NET PE</title>
		
			<line fill="none" stroke="#0DAB76" stroke-width="0.1524" stroke-linecap="round" x1="246.157" y1="82.219" x2="282.157" y2="82.219"/>
		
			<line fill="none" stroke="#0DAB76" stroke-width="0.1524" stroke-linecap="round" x1="282.157" y1="82.219" x2="282.157" y2="111.02"/>
		
			<line fill="none" stroke="#0DAB76" stroke-width="0.1524" stroke-linecap="round" x1="282.157" y1="111.02" x2="282.157" y2="136.219"/>
		
			<line fill="none" stroke="#0DAB76" stroke-width="0.1524" stroke-linecap="round" x1="246.157" y1="111.02" x2="282.157" y2="111.02"/>
		<circle fill="#0DAB76" cx="282.157" cy="111.019" r="1.44"/>
	</g>
	<g>
		<title>PART PE2</title>
		
			<line fill="none" stroke="#C90D0C" stroke-width="0.1524" stroke-linecap="round" x1="51.757" y1="136.219" x2="51.757" y2="143.419"/>
		
			<line fill="none" stroke="#C90D0C" stroke-width="0.254" stroke-linecap="round" x1="46.357" y1="143.419" x2="57.157" y2="143.419"/>
		
			<line fill="none" stroke="#C90D0C" stroke-width="0.254" stroke-linecap="round" x1="48.661" y1="144.86" x2="54.853" y2="144.86"/>
		
			<line fill="none" stroke="#C90D0C" stroke-width="0.254" stroke-linecap="round" x1="49.993" y1="146.299" x2="53.521" y2="146.299"/>
		
			<line fill="none" stroke="#C90D0C" stroke-width="0.254" stroke-linecap="round" x1="50.893" y1="147.74" x2="52.693" y2="147.74"/>
		
			<text transform="matrix(6.123234e-017 -1 1 6.123234e-017 44.5581 150.6194)" font-family="'TimesNewRomanPSMT'" font-size="5.544">GND_HV</text>
	</g>
	<g>
		<title>PART PE4</title>
		
			<line fill="none" stroke="#C90D0C" stroke-width="0.1524" stroke-linecap="round" x1="282.157" y1="136.219" x2="282.157" y2="143.419"/>
		
			<line fill="none" stroke="#C90D0C" stroke-width="0.254" stroke-linecap="round" x1="276.758" y1="143.419" x2="287.557" y2="143.419"/>
		
			<line fill="none" stroke="#C90D0C" stroke-width="0.254" stroke-linecap="round" x1="279.061" y1="144.86" x2="285.254" y2="144.86"/>
		
			<line fill="none" stroke="#C90D0C" stroke-width="0.254" stroke-linecap="round" x1="280.393" y1="146.299" x2="283.922" y2="146.299"/>
		
			<line fill="none" stroke="#C90D0C" stroke-width="0.254" stroke-linecap="round" x1="281.293" y1="147.74" x2="283.094" y2="147.74"/>
		
			<text transform="matrix(6.123234e-017 -1 1 6.123234e-017 274.9565 150.6194)" font-family="'TimesNewRomanPSMT'" font-size="5.544">GND_HV</text>
	</g>
	<g>
		<title>PART Q3</title>
		<rect x="173.077" y="147.02" fill="#C90D0C" width="2.16" height="14.399"/>
		
			<line fill="none" stroke="#C90D0C" stroke-width="0.1524" stroke-linecap="round" x1="166.958" y1="154.219" x2="174.157" y2="154.219"/>
		
			<line fill="none" stroke="#C90D0C" stroke-width="0.1524" stroke-linecap="round" x1="181.358" y1="168.619" x2="181.358" y2="161.419"/>
		
			<line fill="none" stroke="#C90D0C" stroke-width="0.1524" stroke-linecap="round" x1="181.358" y1="139.82" x2="181.358" y2="147.02"/>
		
			<line fill="none" stroke="#C90D0C" stroke-width="0.1524" stroke-linecap="round" x1="181.358" y1="161.419" x2="174.157" y2="154.219"/>
		
			<line fill="none" stroke="#C90D0C" stroke-width="0.1524" stroke-linecap="round" x1="174.157" y1="154.219" x2="177.038" y2="151.339"/>
		
			<line fill="none" stroke="#C90D0C" stroke-width="0.1524" stroke-linecap="round" x1="180.997" y1="149.539" x2="177.038" y2="151.339"/>
		
			<line fill="none" stroke="#C90D0C" stroke-width="0.1524" stroke-linecap="round" x1="177.038" y1="151.339" x2="177.397" y2="150.98"/>
		
			<line fill="none" stroke="#C90D0C" stroke-width="0.1524" stroke-linecap="round" x1="179.557" y1="148.82" x2="181.358" y2="147.02"/>
		
			<line fill="none" stroke="#C90D0C" stroke-width="0.1524" stroke-linecap="round" x1="177.038" y1="151.339" x2="178.838" y2="147.379"/>
		
			<line fill="none" stroke="#C90D0C" stroke-width="0.1524" stroke-linecap="round" x1="178.838" y1="147.379" x2="180.997" y2="149.539"/>
		
			<line fill="none" stroke="#C90D0C" stroke-width="0.254" stroke-linecap="round" x1="177.397" y1="150.98" x2="180.278" y2="149.539"/>
		
			<line fill="none" stroke="#C90D0C" stroke-width="0.254" stroke-linecap="round" x1="180.278" y1="149.539" x2="179.557" y2="148.82"/>
		
			<line fill="none" stroke="#C90D0C" stroke-width="0.254" stroke-linecap="round" x1="179.557" y1="148.82" x2="178.838" y2="148.099"/>
		
			<line fill="none" stroke="#C90D0C" stroke-width="0.254" stroke-linecap="round" x1="178.838" y1="148.099" x2="177.397" y2="150.98"/>
		
			<line fill="none" stroke="#C90D0C" stroke-width="0.254" stroke-linecap="round" x1="177.397" y1="150.98" x2="179.557" y2="148.82"/>
		
			<line fill="none" stroke="#C90D0C" stroke-width="0.254" stroke-linecap="round" x1="178.838" y1="148.82" x2="179.557" y2="149.539"/>
		<text transform="matrix(1 0 0 1 188.5581 166.4592)" font-family="'TimesNewRomanPSMT'" font-size="5.544">Q2</text>
		<text transform="matrix(1 0 0 1 188.5581 159.26)" font-family="'TimesNewRomanPSMT'" font-size="5.544">PNP</text>
	</g>
	<g>
		<title>PART Q4</title>
		<rect x="173.077" y="31.82" fill="#C90D0C" width="2.16" height="14.399"/>
		
			<line fill="none" stroke="#C90D0C" stroke-width="0.1524" stroke-linecap="round" x1="166.958" y1="39.02" x2="174.157" y2="39.02"/>
		
			<line fill="none" stroke="#C90D0C" stroke-width="0.1524" stroke-linecap="round" x1="181.358" y1="24.619" x2="181.358" y2="31.82"/>
		
			<line fill="none" stroke="#C90D0C" stroke-width="0.1524" stroke-linecap="round" x1="181.358" y1="53.419" x2="181.358" y2="46.219"/>
		
			<line fill="none" stroke="#C90D0C" stroke-width="0.1524" stroke-linecap="round" x1="181.358" y1="31.82" x2="174.157" y2="39.02"/>
		
			<line fill="none" stroke="#C90D0C" stroke-width="0.1524" stroke-linecap="round" x1="174.157" y1="39.02" x2="178.838" y2="43.699"/>
		
			<line fill="none" stroke="#C90D0C" stroke-width="0.1524" stroke-linecap="round" x1="180.278" y1="45.139" x2="180.637" y2="45.499"/>
		
			<line fill="none" stroke="#C90D0C" stroke-width="0.1524" stroke-linecap="round" x1="179.198" y1="41.9" x2="180.637" y2="45.499"/>
		
			<line fill="none" stroke="#C90D0C" stroke-width="0.1524" stroke-linecap="round" x1="180.637" y1="45.499" x2="181.358" y2="46.219"/>
		
			<line fill="none" stroke="#C90D0C" stroke-width="0.1524" stroke-linecap="round" x1="180.637" y1="45.499" x2="177.038" y2="44.06"/>
		
			<line fill="none" stroke="#C90D0C" stroke-width="0.1524" stroke-linecap="round" x1="177.038" y1="44.06" x2="179.198" y2="41.9"/>
		
			<line fill="none" stroke="#C90D0C" stroke-width="0.254" stroke-linecap="round" x1="180.278" y1="45.139" x2="179.198" y2="42.619"/>
		
			<line fill="none" stroke="#C90D0C" stroke-width="0.254" stroke-linecap="round" x1="179.198" y1="42.619" x2="177.758" y2="44.06"/>
		
			<line fill="none" stroke="#C90D0C" stroke-width="0.254" stroke-linecap="round" x1="177.758" y1="44.06" x2="180.278" y2="45.139"/>
		
			<line fill="none" stroke="#C90D0C" stroke-width="0.254" stroke-linecap="round" x1="180.278" y1="45.139" x2="178.838" y2="43.699"/>
		
			<line fill="none" stroke="#C90D0C" stroke-width="0.254" stroke-linecap="round" x1="178.477" y1="44.06" x2="179.198" y2="43.339"/>
		<text transform="matrix(1 0 0 1 188.5581 31.8206)" font-family="'TimesNewRomanPSMT'" font-size="5.544">Q1</text>
		<text transform="matrix(1 0 0 1 188.5581 39.0198)" font-family="'TimesNewRomanPSMT'" font-size="5.544">NPN</text>
	</g>
	<g>
		<title>PART R51</title>
		
			<line fill="none" stroke="#C90D0C" stroke-width="0.1524" stroke-linecap="round" x1="217.358" y1="82.219" x2="224.557" y2="82.219"/>
		
			<line fill="none" stroke="#C90D0C" stroke-width="0.1524" stroke-linecap="round" x1="246.157" y1="82.219" x2="238.958" y2="82.219"/>
		
			<line fill="none" stroke="#C90D0C" stroke-width="0.254" stroke-linecap="round" x1="224.557" y1="84.74" x2="238.958" y2="84.74"/>
		
			<line fill="none" stroke="#C90D0C" stroke-width="0.254" stroke-linecap="round" x1="238.958" y1="79.699" x2="224.557" y2="79.699"/>
		
			<line fill="none" stroke="#C90D0C" stroke-width="0.254" stroke-linecap="round" x1="238.958" y1="84.74" x2="238.958" y2="79.699"/>
		
			<line fill="none" stroke="#C90D0C" stroke-width="0.254" stroke-linecap="round" x1="224.557" y1="84.74" x2="224.557" y2="79.699"/>
		<text transform="matrix(1 0 0 1 220.9565 77.9709)" font-family="'TimesNewRomanPSMT'" font-size="5.544">R5</text>
	</g>
	<g>
		<title>PART R600</title>
		
			<line fill="none" stroke="#C90D0C" stroke-width="0.1524" stroke-linecap="round" x1="217.358" y1="111.02" x2="224.557" y2="111.02"/>
		
			<line fill="none" stroke="#C90D0C" stroke-width="0.1524" stroke-linecap="round" x1="246.157" y1="111.02" x2="238.958" y2="111.02"/>
		
			<line fill="none" stroke="#C90D0C" stroke-width="0.254" stroke-linecap="round" x1="224.557" y1="113.539" x2="238.958" y2="113.539"/>
		
			<line fill="none" stroke="#C90D0C" stroke-width="0.254" stroke-linecap="round" x1="238.958" y1="108.499" x2="224.557" y2="108.499"/>
		
			<line fill="none" stroke="#C90D0C" stroke-width="0.254" stroke-linecap="round" x1="238.958" y1="113.539" x2="238.958" y2="108.499"/>
		
			<line fill="none" stroke="#C90D0C" stroke-width="0.254" stroke-linecap="round" x1="224.557" y1="113.539" x2="224.557" y2="108.499"/>
		<text transform="matrix(1 0 0 1 220.9565 106.7717)" font-family="'TimesNewRomanPSMT'" font-size="5.544">R6</text>
	</g>
	<g>
		<title>PART SCHX</title>
		
			<line fill="none" stroke="#C90D0C" stroke-width="0.1524" stroke-linecap="round" x1="37.357" y1="103.82" x2="22.957" y2="103.82"/>
		<text transform="matrix(1 0 0 1 29.5815 102.8108)" font-family="'TimesNewRomanPSMT'" font-size="4.752">1</text>
		
			<line fill="none" stroke="#C90D0C" stroke-width="0.1524" stroke-linecap="round" x1="37.357" y1="96.619" x2="22.957" y2="96.619"/>
		<text transform="matrix(1 0 0 1 29.5815 95.6116)" font-family="'TimesNewRomanPSMT'" font-size="4.752">2</text>
		
			<line fill="none" stroke="#C90D0C" stroke-width="0.4064" stroke-linecap="round" x1="26.557" y1="111.02" x2="8.557" y2="111.02"/>
		
			<line fill="none" stroke="#C90D0C" stroke-width="0.6096" stroke-linecap="round" x1="19.357" y1="96.619" x2="22.957" y2="96.619"/>
		
			<line fill="none" stroke="#C90D0C" stroke-width="0.6096" stroke-linecap="round" x1="19.357" y1="103.82" x2="22.957" y2="103.82"/>
		
			<line fill="none" stroke="#C90D0C" stroke-width="0.4064" stroke-linecap="round" x1="8.557" y1="89.419" x2="8.557" y2="111.02"/>
		
			<line fill="none" stroke="#C90D0C" stroke-width="0.4064" stroke-linecap="round" x1="26.557" y1="111.02" x2="26.557" y2="89.419"/>
		
			<line fill="none" stroke="#C90D0C" stroke-width="0.4064" stroke-linecap="round" x1="8.557" y1="89.419" x2="26.557" y2="89.419"/>
	</g>
	<g>
		<title>PART SUPPLY1</title>
		
			<line fill="none" stroke="#C90D0C" stroke-width="0.1524" stroke-linecap="round" x1="274.958" y1="3.02" x2="271.358" y2="-0.581"/>
		
			<line fill="none" stroke="#C90D0C" stroke-width="0.1524" stroke-linecap="round" x1="271.358" y1="-0.581" x2="231.758" y2="-0.581"/>
		
			<line fill="none" stroke="#C90D0C" stroke-width="0.1524" stroke-linecap="round" x1="231.758" y1="-0.581" x2="231.758" y2="6.619"/>
		
			<line fill="none" stroke="#C90D0C" stroke-width="0.1524" stroke-linecap="round" x1="231.758" y1="6.619" x2="271.358" y2="6.619"/>
		
			<line fill="none" stroke="#C90D0C" stroke-width="0.1524" stroke-linecap="round" x1="274.958" y1="3.02" x2="271.358" y2="6.619"/>
		<text transform="matrix(1 0 0 1 235.3569 5.1799)" font-family="'TimesNewRomanPSMT'" font-size="5.544">EP+</text>
	</g>
	<g>
		<title>PART SUPPLY2</title>
		
			<line fill="none" stroke="#C90D0C" stroke-width="0.1524" stroke-linecap="round" x1="274.958" y1="186.619" x2="271.358" y2="183.02"/>
		
			<line fill="none" stroke="#C90D0C" stroke-width="0.1524" stroke-linecap="round" x1="271.358" y1="183.02" x2="231.758" y2="183.02"/>
		
			<line fill="none" stroke="#C90D0C" stroke-width="0.1524" stroke-linecap="round" x1="231.758" y1="183.02" x2="231.758" y2="190.219"/>
		
			<line fill="none" stroke="#C90D0C" stroke-width="0.1524" stroke-linecap="round" x1="231.758" y1="190.219" x2="271.358" y2="190.219"/>
		
			<line fill="none" stroke="#C90D0C" stroke-width="0.1524" stroke-linecap="round" x1="274.958" y1="186.619" x2="271.358" y2="190.219"/>
		<text transform="matrix(1 0 0 1 235.3569 188.7795)" font-family="'TimesNewRomanPSMT'" font-size="5.544">EP-</text>
	</g>
	<g>
		<title>PART U3A</title>
		
			<line fill="none" stroke="#C90D0C" stroke-width="0.1524" stroke-linecap="round" x1="102.157" y1="31.82" x2="109.357" y2="31.82"/>
		
			<line fill="none" stroke="#C90D0C" stroke-width="0.1524" stroke-linecap="round" x1="102.157" y1="46.219" x2="109.357" y2="46.219"/>
		
			<line fill="none" stroke="#C90D0C" stroke-width="0.1524" stroke-linecap="round" x1="145.358" y1="39.02" x2="138.157" y2="39.02"/>
		
			<line fill="none" stroke="#C90D0C" stroke-width="0.4064" stroke-linecap="round" x1="109.357" y1="24.619" x2="109.357" y2="53.419"/>
		
			<line fill="none" stroke="#C90D0C" stroke-width="0.4064" stroke-linecap="round" x1="109.357" y1="53.419" x2="138.157" y2="39.02"/>
		
			<line fill="none" stroke="#C90D0C" stroke-width="0.4064" stroke-linecap="round" x1="138.157" y1="39.02" x2="109.357" y2="24.619"/>
		
			<line fill="none" stroke="#C90D0C" stroke-width="0.1524" stroke-linecap="round" x1="112.957" y1="30.02" x2="112.957" y2="33.619"/>
		
			<line fill="none" stroke="#C90D0C" stroke-width="0.1524" stroke-linecap="round" x1="111.157" y1="31.82" x2="114.757" y2="31.82"/>
		
			<line fill="none" stroke="#C90D0C" stroke-width="0.1524" stroke-linecap="round" x1="111.157" y1="46.219" x2="114.757" y2="46.219"/>
		<text transform="matrix(1 0 0 1 138.1577 24.6194)" font-family="'TimesNewRomanPSMT'" font-size="5.544">U3A</text>
		<text transform="matrix(1 0 0 1 138.1577 31.8206)" font-family="'TimesNewRomanPSMT'" font-size="5.544">TL082</text>
	</g>
	<g>
		<title>PART U3B</title>
		
			<line fill="none" stroke="#C90D0C" stroke-width="0.1524" stroke-linecap="round" x1="102.157" y1="161.419" x2="109.357" y2="161.419"/>
		
			<line fill="none" stroke="#C90D0C" stroke-width="0.1524" stroke-linecap="round" x1="102.157" y1="147.02" x2="109.357" y2="147.02"/>
		
			<line fill="none" stroke="#C90D0C" stroke-width="0.1524" stroke-linecap="round" x1="145.358" y1="154.219" x2="138.157" y2="154.219"/>
		
			<line fill="none" stroke="#C90D0C" stroke-width="0.4064" stroke-linecap="round" x1="109.357" y1="168.619" x2="109.357" y2="139.82"/>
		
			<line fill="none" stroke="#C90D0C" stroke-width="0.4064" stroke-linecap="round" x1="109.357" y1="139.82" x2="138.157" y2="154.219"/>
		
			<line fill="none" stroke="#C90D0C" stroke-width="0.4064" stroke-linecap="round" x1="138.157" y1="154.219" x2="109.357" y2="168.619"/>
		
			<line fill="none" stroke="#C90D0C" stroke-width="0.1524" stroke-linecap="round" x1="112.957" y1="163.219" x2="112.957" y2="159.619"/>
		
			<line fill="none" stroke="#C90D0C" stroke-width="0.1524" stroke-linecap="round" x1="111.157" y1="161.419" x2="114.757" y2="161.419"/>
		
			<line fill="none" stroke="#C90D0C" stroke-width="0.1524" stroke-linecap="round" x1="111.157" y1="147.02" x2="114.757" y2="147.02"/>
		<text transform="matrix(1 0 0 1 138.1577 173.6604)" font-family="'TimesNewRomanPSMT'" font-size="5.544">U3B</text>
		<text transform="matrix(1 0 0 1 138.1577 166.4592)" font-family="'TimesNewRomanPSMT'" font-size="5.544">TL082</text>
	</g>
</g>
<text transform="matrix(1 0 0 1 10.5571 86.1458)" font-family="'TimesNewRomanPSMT'" font-size="5.544">SCHX</text>
</svg>
