<?xml version="1.0" encoding="utf-8"?>
<!-- Generator: Adobe Illustrator 16.0.0, SVG Export Plug-In . SVG Version: 6.00 Build 0)  -->
<!DOCTYPE svg PUBLIC "-//W3C//DTD SVG 1.1//EN" "http://www.w3.org/Graphics/SVG/1.1/DTD/svg11.dtd">
<svg version="1.1" id="Layer_1" xmlns="http://www.w3.org/2000/svg" xmlns:xlink="http://www.w3.org/1999/xlink" x="0px" y="0px"
	 width="219.333px" height="215.333px" viewBox="-21.385 -55.578 219.333 215.333"
	 enable-background="new -21.385 -55.578 219.333 215.333" xml:space="preserve">
<title>C:/Users/medua/Dropbox/00Iniciode_Doctorado/Gits/EstimulemaPCB/Estimulema v2.sch - sheet 9</title>
<desc>generated by eagle2svg 1.1, developed by http://www.nicai-systems.de</desc>
<g id="surface0">
	<text transform="matrix(1 0 0 1 158.9705 36.7793)" font-family="'TimesNewRomanPSMT'" font-size="5.544">RCARGA</text>
	<text transform="matrix(1 0 0 1 36.5701 -24.4199)" font-family="'TimesNewRomanPSMT'" font-size="5.544">+Iref</text>
	<g>
		<title>NET N$47</title>
		
			<line fill="none" stroke="#0DAB76" stroke-width="0.1524" stroke-linecap="round" x1="29.37" y1="-31.621" x2="58.17" y2="-31.621"/>
		
			<line fill="none" stroke="#0DAB76" stroke-width="0.1524" stroke-linecap="round" x1="58.17" y1="-31.621" x2="58.17" y2="11.579"/>
		
			<line fill="none" stroke="#0DAB76" stroke-width="0.1524" stroke-linecap="round" x1="58.17" y1="11.579" x2="58.17" y2="40.379"/>
		
			<line fill="none" stroke="#0DAB76" stroke-width="0.1524" stroke-linecap="round" x1="101.37" y1="11.579" x2="58.17" y2="11.579"/>
		<circle fill="#0DAB76" cx="58.17" cy="11.579" r="1.44"/>
	</g>
	<g>
		<title>NET N$48</title>
		
			<line fill="none" stroke="#0DAB76" stroke-width="0.1524" stroke-linecap="round" x1="115.77" y1="40.379" x2="115.77" y2="33.179"/>
		
			<line fill="none" stroke="#0DAB76" stroke-width="0.1524" stroke-linecap="round" x1="115.77" y1="33.179" x2="115.77" y2="25.979"/>
		
			<line fill="none" stroke="#0DAB76" stroke-width="0.1524" stroke-linecap="round" x1="72.57" y1="54.779" x2="86.969" y2="54.779"/>
		
			<line fill="none" stroke="#0DAB76" stroke-width="0.1524" stroke-linecap="round" x1="86.969" y1="54.779" x2="101.37" y2="54.779"/>
		
			<line fill="none" stroke="#0DAB76" stroke-width="0.1524" stroke-linecap="round" x1="115.77" y1="33.179" x2="86.969" y2="33.179"/>
		
			<line fill="none" stroke="#0DAB76" stroke-width="0.1524" stroke-linecap="round" x1="86.969" y1="33.179" x2="86.969" y2="54.779"/>
		<circle fill="#0DAB76" cx="115.77" cy="33.179" r="1.44"/>
		<circle fill="#0DAB76" cx="86.969" cy="54.779" r="1.44"/>
	</g>
	<g>
		<title>NET N$49</title>
		
			<line fill="none" stroke="#0DAB76" stroke-width="0.1524" stroke-linecap="round" x1="58.17" y1="69.179" x2="58.17" y2="79.979"/>
	</g>
	<g>
		<title>NET N$50</title>
		
			<line fill="none" stroke="#0DAB76" stroke-width="0.1524" stroke-linecap="round" x1="115.77" y1="69.179" x2="115.77" y2="79.979"/>
	</g>
	<g>
		<title>NET VDD</title>
		
			<line fill="none" stroke="#0DAB76" stroke-width="0.1524" stroke-linecap="round" x1="151.77" y1="22.379" x2="173.37" y2="22.379"/>
		
			<line fill="none" stroke="#0DAB76" stroke-width="0.1524" stroke-linecap="round" x1="151.77" y1="-31.621" x2="158.969" y2="-31.621"/>
		
			<line fill="none" stroke="#0DAB76" stroke-width="0.1524" stroke-linecap="round" x1="151.77" y1="22.379" x2="151.77" y2="-31.621"/>
		
			<line fill="none" stroke="#0DAB76" stroke-width="0.1524" stroke-linecap="round" x1="115.77" y1="-2.821" x2="115.77" y2="-31.621"/>
		
			<line fill="none" stroke="#0DAB76" stroke-width="0.1524" stroke-linecap="round" x1="115.77" y1="-31.621" x2="151.77" y2="-31.621"/>
		<circle fill="#0DAB76" cx="151.77" cy="-31.621" r="1.44"/>
		
			<line fill="none" stroke="#0DAB76" stroke-width="0.1524" stroke-linecap="round" x1="151.77" y1="115.979" x2="151.77" y2="43.979"/>
		
			<line fill="none" stroke="#0DAB76" stroke-width="0.1524" stroke-linecap="round" x1="151.77" y1="43.979" x2="173.37" y2="43.979"/>
		
			<line fill="none" stroke="#0DAB76" stroke-width="0.1524" stroke-linecap="round" x1="58.17" y1="119.579" x2="86.969" y2="119.579"/>
		
			<line fill="none" stroke="#0DAB76" stroke-width="0.1524" stroke-linecap="round" x1="86.969" y1="119.579" x2="115.77" y2="119.579"/>
		
			<line fill="none" stroke="#0DAB76" stroke-width="0.1524" stroke-linecap="round" x1="86.969" y1="137.579" x2="86.969" y2="119.579"/>
		
			<line fill="none" stroke="#0DAB76" stroke-width="0.1524" stroke-linecap="round" x1="58.17" y1="108.779" x2="58.17" y2="119.579"/>
		
			<line fill="none" stroke="#0DAB76" stroke-width="0.1524" stroke-linecap="round" x1="115.77" y1="108.779" x2="115.77" y2="119.579"/>
		
			<line fill="none" stroke="#0DAB76" stroke-width="0.1524" stroke-linecap="round" x1="151.77" y1="115.979" x2="151.77" y2="119.579"/>
		
			<line fill="none" stroke="#0DAB76" stroke-width="0.1524" stroke-linecap="round" x1="151.77" y1="119.579" x2="115.77" y2="119.579"/>
		<circle fill="#0DAB76" cx="86.969" cy="119.58" r="1.44"/>
		<circle fill="#0DAB76" cx="115.77" cy="119.58" r="1.44"/>
	</g>
	<g>
		<title>PART IOUT1</title>
		
			<line fill="none" stroke="#C90D0C" stroke-width="0.1524" stroke-linecap="round" x1="158.969" y1="-31.621" x2="173.37" y2="-31.621"/>
		
			<line fill="none" stroke="#C90D0C" stroke-width="0.4064" stroke-linecap="round" x1="169.769" y1="-24.421" x2="187.77" y2="-24.421"/>
		
			<line fill="none" stroke="#C90D0C" stroke-width="0.6096" stroke-linecap="round" x1="176.969" y1="-31.621" x2="173.37" y2="-31.621"/>
		
			<line fill="none" stroke="#C90D0C" stroke-width="0.4064" stroke-linecap="round" x1="187.77" y1="-38.821" x2="187.77" y2="-24.421"/>
		
			<line fill="none" stroke="#C90D0C" stroke-width="0.4064" stroke-linecap="round" x1="169.769" y1="-24.421" x2="169.769" y2="-38.821"/>
		
			<line fill="none" stroke="#C90D0C" stroke-width="0.4064" stroke-linecap="round" x1="187.77" y1="-38.821" x2="169.769" y2="-38.821"/>
	</g>
	<g>
		<title>PART PE6</title>
		
			<line fill="none" stroke="#C90D0C" stroke-width="0.1524" stroke-linecap="round" x1="86.969" y1="137.579" x2="86.969" y2="144.779"/>
		
			<line fill="none" stroke="#C90D0C" stroke-width="0.254" stroke-linecap="round" x1="81.57" y1="144.779" x2="92.37" y2="144.779"/>
		
			<line fill="none" stroke="#C90D0C" stroke-width="0.254" stroke-linecap="round" x1="83.874" y1="146.22" x2="90.066" y2="146.22"/>
		
			<line fill="none" stroke="#C90D0C" stroke-width="0.254" stroke-linecap="round" x1="85.206" y1="147.659" x2="88.734" y2="147.659"/>
		
			<line fill="none" stroke="#C90D0C" stroke-width="0.254" stroke-linecap="round" x1="86.106" y1="149.099" x2="87.906" y2="149.099"/>
		
			<text transform="matrix(6.123234e-017 -1 1 6.123234e-017 79.7693 151.9785)" font-family="'TimesNewRomanPSMT'" font-size="5.544">GND_HV</text>
	</g>
	<g>
		<title>PART Q1</title>
		<rect x="107.49" y="4.379" fill="#C90D0C" width="2.16" height="14.4"/>
		
			<line fill="none" stroke="#C90D0C" stroke-width="0.1524" stroke-linecap="round" x1="101.37" y1="11.579" x2="108.57" y2="11.579"/>
		
			<line fill="none" stroke="#C90D0C" stroke-width="0.1524" stroke-linecap="round" x1="115.77" y1="-2.821" x2="115.77" y2="4.379"/>
		
			<line fill="none" stroke="#C90D0C" stroke-width="0.1524" stroke-linecap="round" x1="115.77" y1="25.979" x2="115.77" y2="18.779"/>
		
			<line fill="none" stroke="#C90D0C" stroke-width="0.1524" stroke-linecap="round" x1="115.77" y1="4.379" x2="108.57" y2="11.579"/>
		
			<line fill="none" stroke="#C90D0C" stroke-width="0.1524" stroke-linecap="round" x1="108.57" y1="11.579" x2="113.25" y2="16.259"/>
		
			<line fill="none" stroke="#C90D0C" stroke-width="0.1524" stroke-linecap="round" x1="114.69" y1="17.699" x2="115.05" y2="18.06"/>
		
			<line fill="none" stroke="#C90D0C" stroke-width="0.1524" stroke-linecap="round" x1="113.61" y1="14.459" x2="115.05" y2="18.06"/>
		
			<line fill="none" stroke="#C90D0C" stroke-width="0.1524" stroke-linecap="round" x1="115.05" y1="18.06" x2="115.77" y2="18.779"/>
		
			<line fill="none" stroke="#C90D0C" stroke-width="0.1524" stroke-linecap="round" x1="115.05" y1="18.06" x2="111.45" y2="16.619"/>
		
			<line fill="none" stroke="#C90D0C" stroke-width="0.1524" stroke-linecap="round" x1="111.45" y1="16.619" x2="113.61" y2="14.459"/>
		
			<line fill="none" stroke="#C90D0C" stroke-width="0.254" stroke-linecap="round" x1="114.69" y1="17.699" x2="113.61" y2="15.179"/>
		
			<line fill="none" stroke="#C90D0C" stroke-width="0.254" stroke-linecap="round" x1="113.61" y1="15.179" x2="112.17" y2="16.619"/>
		
			<line fill="none" stroke="#C90D0C" stroke-width="0.254" stroke-linecap="round" x1="112.17" y1="16.619" x2="114.69" y2="17.699"/>
		
			<line fill="none" stroke="#C90D0C" stroke-width="0.254" stroke-linecap="round" x1="114.69" y1="17.699" x2="113.25" y2="16.259"/>
		
			<line fill="none" stroke="#C90D0C" stroke-width="0.254" stroke-linecap="round" x1="112.889" y1="16.619" x2="113.61" y2="15.899"/>
		<text transform="matrix(1 0 0 1 122.9705 4.3789)" font-family="'TimesNewRomanPSMT'" font-size="5.544">Q5</text>
		<text transform="matrix(1 0 0 1 122.9705 11.5801)" font-family="'TimesNewRomanPSMT'" font-size="5.544">NPN</text>
	</g>
	<g>
		<title>PART Q2</title>
		<rect x="64.29" y="47.579" fill="#C90D0C" width="2.16" height="14.4"/>
		
			<line fill="none" stroke="#C90D0C" stroke-width="0.1524" stroke-linecap="round" x1="72.57" y1="54.779" x2="65.37" y2="54.779"/>
		
			<line fill="none" stroke="#C90D0C" stroke-width="0.1524" stroke-linecap="round" x1="58.17" y1="40.379" x2="58.17" y2="47.579"/>
		
			<line fill="none" stroke="#C90D0C" stroke-width="0.1524" stroke-linecap="round" x1="58.17" y1="69.179" x2="58.17" y2="61.979"/>
		
			<line fill="none" stroke="#C90D0C" stroke-width="0.1524" stroke-linecap="round" x1="58.17" y1="47.579" x2="65.37" y2="54.779"/>
		
			<line fill="none" stroke="#C90D0C" stroke-width="0.1524" stroke-linecap="round" x1="65.37" y1="54.779" x2="60.69" y2="59.459"/>
		
			<line fill="none" stroke="#C90D0C" stroke-width="0.1524" stroke-linecap="round" x1="59.25" y1="60.899" x2="58.889" y2="61.259"/>
		
			<line fill="none" stroke="#C90D0C" stroke-width="0.1524" stroke-linecap="round" x1="60.33" y1="57.659" x2="58.889" y2="61.259"/>
		
			<line fill="none" stroke="#C90D0C" stroke-width="0.1524" stroke-linecap="round" x1="58.889" y1="61.259" x2="58.17" y2="61.979"/>
		
			<line fill="none" stroke="#C90D0C" stroke-width="0.1524" stroke-linecap="round" x1="58.889" y1="61.259" x2="62.49" y2="59.819"/>
		
			<line fill="none" stroke="#C90D0C" stroke-width="0.1524" stroke-linecap="round" x1="62.49" y1="59.819" x2="60.33" y2="57.659"/>
		<line fill="none" stroke="#C90D0C" stroke-width="0.254" stroke-linecap="round" x1="59.25" y1="60.899" x2="60.33" y2="58.379"/>
		<line fill="none" stroke="#C90D0C" stroke-width="0.254" stroke-linecap="round" x1="60.33" y1="58.379" x2="61.77" y2="59.819"/>
		<line fill="none" stroke="#C90D0C" stroke-width="0.254" stroke-linecap="round" x1="61.77" y1="59.819" x2="59.25" y2="60.899"/>
		<line fill="none" stroke="#C90D0C" stroke-width="0.254" stroke-linecap="round" x1="59.25" y1="60.899" x2="60.69" y2="59.459"/>
		<line fill="none" stroke="#C90D0C" stroke-width="0.254" stroke-linecap="round" x1="61.05" y1="59.819" x2="60.33" y2="59.099"/>
		<text transform="matrix(1 0 0 1 44.1931 47.5801)" font-family="'TimesNewRomanPSMT'" font-size="5.544">Q3</text>
		<text transform="matrix(1 0 0 1 39.8787 54.7793)" font-family="'TimesNewRomanPSMT'" font-size="5.544">NPN</text>
	</g>
	<g>
		<title>PART Q5</title>
		<rect x="107.49" y="47.579" fill="#C90D0C" width="2.16" height="14.4"/>
		
			<line fill="none" stroke="#C90D0C" stroke-width="0.1524" stroke-linecap="round" x1="101.37" y1="54.779" x2="108.57" y2="54.779"/>
		
			<line fill="none" stroke="#C90D0C" stroke-width="0.1524" stroke-linecap="round" x1="115.77" y1="40.379" x2="115.77" y2="47.579"/>
		
			<line fill="none" stroke="#C90D0C" stroke-width="0.1524" stroke-linecap="round" x1="115.77" y1="69.179" x2="115.77" y2="61.979"/>
		
			<line fill="none" stroke="#C90D0C" stroke-width="0.1524" stroke-linecap="round" x1="115.77" y1="47.579" x2="108.57" y2="54.779"/>
		
			<line fill="none" stroke="#C90D0C" stroke-width="0.1524" stroke-linecap="round" x1="108.57" y1="54.779" x2="113.25" y2="59.459"/>
		
			<line fill="none" stroke="#C90D0C" stroke-width="0.1524" stroke-linecap="round" x1="114.69" y1="60.899" x2="115.05" y2="61.259"/>
		
			<line fill="none" stroke="#C90D0C" stroke-width="0.1524" stroke-linecap="round" x1="113.61" y1="57.659" x2="115.05" y2="61.259"/>
		
			<line fill="none" stroke="#C90D0C" stroke-width="0.1524" stroke-linecap="round" x1="115.05" y1="61.259" x2="115.77" y2="61.979"/>
		
			<line fill="none" stroke="#C90D0C" stroke-width="0.1524" stroke-linecap="round" x1="115.05" y1="61.259" x2="111.45" y2="59.819"/>
		
			<line fill="none" stroke="#C90D0C" stroke-width="0.1524" stroke-linecap="round" x1="111.45" y1="59.819" x2="113.61" y2="57.659"/>
		
			<line fill="none" stroke="#C90D0C" stroke-width="0.254" stroke-linecap="round" x1="114.69" y1="60.899" x2="113.61" y2="58.379"/>
		
			<line fill="none" stroke="#C90D0C" stroke-width="0.254" stroke-linecap="round" x1="113.61" y1="58.379" x2="112.17" y2="59.819"/>
		
			<line fill="none" stroke="#C90D0C" stroke-width="0.254" stroke-linecap="round" x1="112.17" y1="59.819" x2="114.69" y2="60.899"/>
		
			<line fill="none" stroke="#C90D0C" stroke-width="0.254" stroke-linecap="round" x1="114.69" y1="60.899" x2="113.25" y2="59.459"/>
		
			<line fill="none" stroke="#C90D0C" stroke-width="0.254" stroke-linecap="round" x1="112.889" y1="59.819" x2="113.61" y2="59.099"/>
		<text transform="matrix(1 0 0 1 122.9705 47.5801)" font-family="'TimesNewRomanPSMT'" font-size="5.544">Q4</text>
		<text transform="matrix(1 0 0 1 122.9705 54.7793)" font-family="'TimesNewRomanPSMT'" font-size="5.544">NPN</text>
	</g>
	<g>
		<title>PART R27</title>
		
			<line fill="none" stroke="#C90D0C" stroke-width="0.1524" stroke-linecap="round" x1="58.17" y1="108.779" x2="58.17" y2="101.579"/>
		
			<line fill="none" stroke="#C90D0C" stroke-width="0.1524" stroke-linecap="round" x1="58.17" y1="79.979" x2="58.17" y2="87.179"/>
		
			<line fill="none" stroke="#C90D0C" stroke-width="0.254" stroke-linecap="round" x1="60.69" y1="101.579" x2="60.69" y2="87.179"/>
		
			<line fill="none" stroke="#C90D0C" stroke-width="0.254" stroke-linecap="round" x1="55.65" y1="87.179" x2="55.65" y2="101.579"/>
		<line fill="none" stroke="#C90D0C" stroke-width="0.254" stroke-linecap="round" x1="60.69" y1="87.179" x2="55.65" y2="87.179"/>
		
			<line fill="none" stroke="#C90D0C" stroke-width="0.254" stroke-linecap="round" x1="60.69" y1="101.579" x2="55.65" y2="101.579"/>
		
			<text transform="matrix(6.123234e-017 -1 1 6.123234e-017 53.9216 105.1797)" font-family="'TimesNewRomanPSMT'" font-size="5.544">R7</text>
	</g>
	<g>
		<title>PART R28</title>
		
			<line fill="none" stroke="#C90D0C" stroke-width="0.1524" stroke-linecap="round" x1="115.77" y1="108.779" x2="115.77" y2="101.579"/>
		
			<line fill="none" stroke="#C90D0C" stroke-width="0.1524" stroke-linecap="round" x1="115.77" y1="79.979" x2="115.77" y2="87.179"/>
		
			<line fill="none" stroke="#C90D0C" stroke-width="0.254" stroke-linecap="round" x1="118.29" y1="101.579" x2="118.29" y2="87.179"/>
		
			<line fill="none" stroke="#C90D0C" stroke-width="0.254" stroke-linecap="round" x1="113.25" y1="87.179" x2="113.25" y2="101.579"/>
		
			<line fill="none" stroke="#C90D0C" stroke-width="0.254" stroke-linecap="round" x1="118.29" y1="87.179" x2="113.25" y2="87.179"/>
		
			<line fill="none" stroke="#C90D0C" stroke-width="0.254" stroke-linecap="round" x1="118.29" y1="101.579" x2="113.25" y2="101.579"/>
		
			<text transform="matrix(6.123234e-017 -1 1 6.123234e-017 111.5212 105.1797)" font-family="'TimesNewRomanPSMT'" font-size="5.544">R8</text>
	</g>
	<g>
		<title>PART SUPPLY4</title>
		
			<line fill="none" stroke="#C90D0C" stroke-width="0.1524" stroke-linecap="round" x1="-13.83" y1="-31.621" x2="-10.23" y2="-35.221"/>
		
			<line fill="none" stroke="#C90D0C" stroke-width="0.1524" stroke-linecap="round" x1="-10.23" y1="-35.221" x2="29.37" y2="-35.221"/>
		
			<line fill="none" stroke="#C90D0C" stroke-width="0.1524" stroke-linecap="round" x1="29.37" y1="-35.221" x2="29.37" y2="-28.021"/>
		
			<line fill="none" stroke="#C90D0C" stroke-width="0.1524" stroke-linecap="round" x1="29.37" y1="-28.021" x2="-10.23" y2="-28.021"/>
		
			<line fill="none" stroke="#C90D0C" stroke-width="0.1524" stroke-linecap="round" x1="-13.83" y1="-31.621" x2="-10.23" y2="-28.021"/>
		<text transform="matrix(1 0 0 1 16.1736 -29.4609)" font-family="'TimesNewRomanPSMT'" font-size="5.544">EP+</text>
	</g>
	<g>
		<title>PART SUPPLY5</title>
		<circle fill="none" stroke="#C90D0C" stroke-width="0.254" cx="184.17" cy="22.379" r="3.6"/>
		
			<line fill="none" stroke="#C90D0C" stroke-width="0.1524" stroke-linecap="round" x1="173.37" y1="22.379" x2="180.57" y2="22.379"/>
	</g>
	<g>
		<title>PART SUPPLY6</title>
		<circle fill="none" stroke="#C90D0C" stroke-width="0.254" cx="184.17" cy="43.979" r="3.6"/>
		
			<line fill="none" stroke="#C90D0C" stroke-width="0.1524" stroke-linecap="round" x1="173.37" y1="43.979" x2="180.57" y2="43.979"/>
	</g>
</g>
<text transform="matrix(1 0 0 1 172.7234 -40.7915)" font-family="'TimesNewRomanPSMT'" font-size="5.544">IOUT</text>
</svg>
