<?xml version="1.0" encoding="utf-8"?>
<!-- Generator: Adobe Illustrator 16.0.0, SVG Export Plug-In . SVG Version: 6.00 Build 0)  -->
<!DOCTYPE svg PUBLIC "-//W3C//DTD SVG 1.1//EN" "http://www.w3.org/Graphics/SVG/1.1/DTD/svg11.dtd">
<svg version="1.1" id="Layer_1" xmlns="http://www.w3.org/2000/svg" xmlns:xlink="http://www.w3.org/1999/xlink" x="0px" y="0px"
	 width="183.334px" height="194.667px" viewBox="-43.752 -33.044 183.334 194.667"
	 enable-background="new -43.752 -33.044 183.334 194.667" xml:space="preserve">
<title>C:/Users/medua/Dropbox/00Iniciode_Doctorado/Gits/EstimulemaPCB/Estimulema v2.sch - sheet 8</title>
<desc>generated by eagle2svg 1.1, developed by http://www.nicai-systems.de</desc>
<g id="surface0">
	<text transform="matrix(1 0 0 1 16.25 -2.8303)" font-family="'TimesNewRomanPSMT'" font-size="5.544">+Iref</text>
	<g>
		<title>NET N$44</title>
		
			<line fill="none" stroke="#0DAB76" stroke-width="0.1524" stroke-linecap="round" x1="9.05" y1="-10.031" x2="37.85" y2="-10.031"/>
		
			<line fill="none" stroke="#0DAB76" stroke-width="0.1524" stroke-linecap="round" x1="37.85" y1="-10.031" x2="37.85" y2="33.17"/>
		<line fill="none" stroke="#0DAB76" stroke-width="0.1524" stroke-linecap="round" x1="37.85" y1="33.17" x2="37.85" y2="61.969"/>
		<line fill="none" stroke="#0DAB76" stroke-width="0.1524" stroke-linecap="round" x1="81.05" y1="33.17" x2="37.85" y2="33.17"/>
		<circle fill="#0DAB76" cx="37.85" cy="33.169" r="1.44"/>
	</g>
	<g>
		<title>NET N$45</title>
		
			<line fill="none" stroke="#0DAB76" stroke-width="0.1524" stroke-linecap="round" x1="95.449" y1="61.969" x2="95.449" y2="54.769"/>
		
			<line fill="none" stroke="#0DAB76" stroke-width="0.1524" stroke-linecap="round" x1="95.449" y1="54.769" x2="95.449" y2="47.569"/>
		
			<line fill="none" stroke="#0DAB76" stroke-width="0.1524" stroke-linecap="round" x1="52.25" y1="76.369" x2="66.65" y2="76.369"/>
		
			<line fill="none" stroke="#0DAB76" stroke-width="0.1524" stroke-linecap="round" x1="66.65" y1="76.369" x2="81.05" y2="76.369"/>
		
			<line fill="none" stroke="#0DAB76" stroke-width="0.1524" stroke-linecap="round" x1="95.449" y1="54.769" x2="66.65" y2="54.769"/>
		
			<line fill="none" stroke="#0DAB76" stroke-width="0.1524" stroke-linecap="round" x1="66.65" y1="54.769" x2="66.65" y2="76.369"/>
		<circle fill="#0DAB76" cx="95.449" cy="54.769" r="1.44"/>
		<circle fill="#0DAB76" cx="66.65" cy="76.369" r="1.44"/>
	</g>
	<g>
		<title>NET N$46</title>
		
			<line fill="none" stroke="#0DAB76" stroke-width="0.1524" stroke-linecap="round" x1="95.449" y1="18.769" x2="95.449" y2="-10.031"/>
		
			<line fill="none" stroke="#0DAB76" stroke-width="0.1524" stroke-linecap="round" x1="95.449" y1="-10.031" x2="102.65" y2="-10.031"/>
	</g>
	<g>
		<title>NET PE</title>
		
			<line fill="none" stroke="#0DAB76" stroke-width="0.1524" stroke-linecap="round" x1="37.85" y1="90.769" x2="37.85" y2="119.569"/>
		
			<line fill="none" stroke="#0DAB76" stroke-width="0.1524" stroke-linecap="round" x1="37.85" y1="119.569" x2="66.65" y2="119.569"/>
		
			<line fill="none" stroke="#0DAB76" stroke-width="0.1524" stroke-linecap="round" x1="66.65" y1="119.569" x2="95.449" y2="119.569"/>
		
			<line fill="none" stroke="#0DAB76" stroke-width="0.1524" stroke-linecap="round" x1="95.449" y1="119.569" x2="95.449" y2="90.769"/>
		
			<line fill="none" stroke="#0DAB76" stroke-width="0.1524" stroke-linecap="round" x1="66.65" y1="137.569" x2="66.65" y2="119.569"/>
		<circle fill="#0DAB76" cx="66.65" cy="119.57" r="1.44"/>
	</g>
	<g>
		<title>PART IOUT</title>
		
			<line fill="none" stroke="#C90D0C" stroke-width="0.1524" stroke-linecap="round" x1="102.65" y1="-10.031" x2="117.05" y2="-10.031"/>
		
			<line fill="none" stroke="#C90D0C" stroke-width="0.4064" stroke-linecap="round" x1="113.449" y1="-2.83" x2="131.449" y2="-2.83"/>
		
			<line fill="none" stroke="#C90D0C" stroke-width="0.6096" stroke-linecap="round" x1="120.65" y1="-10.031" x2="117.05" y2="-10.031"/>
		
			<line fill="none" stroke="#C90D0C" stroke-width="0.4064" stroke-linecap="round" x1="131.449" y1="-17.231" x2="131.449" y2="-2.83"/>
		
			<line fill="none" stroke="#C90D0C" stroke-width="0.4064" stroke-linecap="round" x1="113.449" y1="-2.83" x2="113.449" y2="-17.231"/>
		
			<line fill="none" stroke="#C90D0C" stroke-width="0.4064" stroke-linecap="round" x1="131.449" y1="-17.231" x2="113.449" y2="-17.231"/>
	</g>
	<g>
		<title>PART PE5</title>
		
			<line fill="none" stroke="#C90D0C" stroke-width="0.1524" stroke-linecap="round" x1="66.65" y1="137.569" x2="66.65" y2="144.769"/>
		
			<line fill="none" stroke="#C90D0C" stroke-width="0.254" stroke-linecap="round" x1="61.25" y1="144.769" x2="72.05" y2="144.769"/>
		
			<line fill="none" stroke="#C90D0C" stroke-width="0.254" stroke-linecap="round" x1="63.554" y1="146.21" x2="69.746" y2="146.21"/>
		
			<line fill="none" stroke="#C90D0C" stroke-width="0.254" stroke-linecap="round" x1="64.886" y1="147.649" x2="68.414" y2="147.649"/>
		
			<line fill="none" stroke="#C90D0C" stroke-width="0.254" stroke-linecap="round" x1="65.786" y1="149.09" x2="67.586" y2="149.09"/>
		
			<text transform="matrix(6.123234e-017 -1 1 6.123234e-017 59.4492 151.9685)" font-family="'TimesNewRomanPSMT'" font-size="5.544">GND_HV</text>
	</g>
	<g>
		<title>PART Q31</title>
		<rect x="43.97" y="69.17" fill="#C90D0C" width="2.16" height="14.399"/>
		
			<line fill="none" stroke="#C90D0C" stroke-width="0.1524" stroke-linecap="round" x1="52.25" y1="76.369" x2="45.05" y2="76.369"/>
		<line fill="none" stroke="#C90D0C" stroke-width="0.1524" stroke-linecap="round" x1="37.85" y1="61.969" x2="37.85" y2="69.17"/>
		
			<line fill="none" stroke="#C90D0C" stroke-width="0.1524" stroke-linecap="round" x1="37.85" y1="90.769" x2="37.85" y2="83.569"/>
		<line fill="none" stroke="#C90D0C" stroke-width="0.1524" stroke-linecap="round" x1="37.85" y1="69.17" x2="45.05" y2="76.369"/>
		<line fill="none" stroke="#C90D0C" stroke-width="0.1524" stroke-linecap="round" x1="45.05" y1="76.369" x2="40.37" y2="81.05"/>
		
			<line fill="none" stroke="#C90D0C" stroke-width="0.1524" stroke-linecap="round" x1="38.93" y1="82.489" x2="38.57" y2="82.849"/>
		
			<line fill="none" stroke="#C90D0C" stroke-width="0.1524" stroke-linecap="round" x1="40.01" y1="79.249" x2="38.57" y2="82.849"/>
		
			<line fill="none" stroke="#C90D0C" stroke-width="0.1524" stroke-linecap="round" x1="38.57" y1="82.849" x2="37.85" y2="83.569"/>
		
			<line fill="none" stroke="#C90D0C" stroke-width="0.1524" stroke-linecap="round" x1="38.57" y1="82.849" x2="42.17" y2="81.409"/>
		
			<line fill="none" stroke="#C90D0C" stroke-width="0.1524" stroke-linecap="round" x1="42.17" y1="81.409" x2="40.01" y2="79.249"/>
		<line fill="none" stroke="#C90D0C" stroke-width="0.254" stroke-linecap="round" x1="38.93" y1="82.489" x2="40.01" y2="79.969"/>
		<line fill="none" stroke="#C90D0C" stroke-width="0.254" stroke-linecap="round" x1="40.01" y1="79.969" x2="41.45" y2="81.409"/>
		<line fill="none" stroke="#C90D0C" stroke-width="0.254" stroke-linecap="round" x1="41.45" y1="81.409" x2="38.93" y2="82.489"/>
		<line fill="none" stroke="#C90D0C" stroke-width="0.254" stroke-linecap="round" x1="38.93" y1="82.489" x2="40.37" y2="81.05"/>
		<line fill="none" stroke="#C90D0C" stroke-width="0.254" stroke-linecap="round" x1="40.73" y1="81.409" x2="40.01" y2="80.689"/>
		<text transform="matrix(1 0 0 1 21.1016 69.1697)" font-family="'TimesNewRomanPSMT'" font-size="5.544">Q31</text>
		<text transform="matrix(1 0 0 1 19.5586 76.3689)" font-family="'TimesNewRomanPSMT'" font-size="5.544">NPN</text>
	</g>
	<g>
		<title>PART Q41</title>
		<rect x="87.17" y="69.17" fill="#C90D0C" width="2.16" height="14.399"/>
		
			<line fill="none" stroke="#C90D0C" stroke-width="0.1524" stroke-linecap="round" x1="81.05" y1="76.369" x2="88.25" y2="76.369"/>
		
			<line fill="none" stroke="#C90D0C" stroke-width="0.1524" stroke-linecap="round" x1="95.449" y1="61.969" x2="95.449" y2="69.17"/>
		
			<line fill="none" stroke="#C90D0C" stroke-width="0.1524" stroke-linecap="round" x1="95.449" y1="90.769" x2="95.449" y2="83.569"/>
		
			<line fill="none" stroke="#C90D0C" stroke-width="0.1524" stroke-linecap="round" x1="95.449" y1="69.17" x2="88.25" y2="76.369"/>
		<line fill="none" stroke="#C90D0C" stroke-width="0.1524" stroke-linecap="round" x1="88.25" y1="76.369" x2="92.93" y2="81.05"/>
		
			<line fill="none" stroke="#C90D0C" stroke-width="0.1524" stroke-linecap="round" x1="94.369" y1="82.489" x2="94.73" y2="82.849"/>
		
			<line fill="none" stroke="#C90D0C" stroke-width="0.1524" stroke-linecap="round" x1="93.29" y1="79.249" x2="94.73" y2="82.849"/>
		
			<line fill="none" stroke="#C90D0C" stroke-width="0.1524" stroke-linecap="round" x1="94.73" y1="82.849" x2="95.449" y2="83.569"/>
		
			<line fill="none" stroke="#C90D0C" stroke-width="0.1524" stroke-linecap="round" x1="94.73" y1="82.849" x2="91.13" y2="81.409"/>
		
			<line fill="none" stroke="#C90D0C" stroke-width="0.1524" stroke-linecap="round" x1="91.13" y1="81.409" x2="93.29" y2="79.249"/>
		
			<line fill="none" stroke="#C90D0C" stroke-width="0.254" stroke-linecap="round" x1="94.369" y1="82.489" x2="93.29" y2="79.969"/>
		<line fill="none" stroke="#C90D0C" stroke-width="0.254" stroke-linecap="round" x1="93.29" y1="79.969" x2="91.85" y2="81.409"/>
		
			<line fill="none" stroke="#C90D0C" stroke-width="0.254" stroke-linecap="round" x1="91.85" y1="81.409" x2="94.369" y2="82.489"/>
		<line fill="none" stroke="#C90D0C" stroke-width="0.254" stroke-linecap="round" x1="94.369" y1="82.489" x2="92.93" y2="81.05"/>
		<line fill="none" stroke="#C90D0C" stroke-width="0.254" stroke-linecap="round" x1="92.57" y1="81.409" x2="93.29" y2="80.689"/>
		<text transform="matrix(1 0 0 1 102.6504 69.1697)" font-family="'TimesNewRomanPSMT'" font-size="5.544">Q41</text>
		<text transform="matrix(1 0 0 1 102.6504 76.3689)" font-family="'TimesNewRomanPSMT'" font-size="5.544">NPN</text>
	</g>
	<g>
		<title>PART Q51</title>
		<rect x="87.17" y="25.969" fill="#C90D0C" width="2.16" height="14.399"/>
		<line fill="none" stroke="#C90D0C" stroke-width="0.1524" stroke-linecap="round" x1="81.05" y1="33.17" x2="88.25" y2="33.17"/>
		
			<line fill="none" stroke="#C90D0C" stroke-width="0.1524" stroke-linecap="round" x1="95.449" y1="18.769" x2="95.449" y2="25.969"/>
		
			<line fill="none" stroke="#C90D0C" stroke-width="0.1524" stroke-linecap="round" x1="95.449" y1="47.569" x2="95.449" y2="40.369"/>
		
			<line fill="none" stroke="#C90D0C" stroke-width="0.1524" stroke-linecap="round" x1="95.449" y1="25.969" x2="88.25" y2="33.17"/>
		<line fill="none" stroke="#C90D0C" stroke-width="0.1524" stroke-linecap="round" x1="88.25" y1="33.17" x2="92.93" y2="37.849"/>
		
			<line fill="none" stroke="#C90D0C" stroke-width="0.1524" stroke-linecap="round" x1="94.369" y1="39.289" x2="94.73" y2="39.649"/>
		<line fill="none" stroke="#C90D0C" stroke-width="0.1524" stroke-linecap="round" x1="93.29" y1="36.05" x2="94.73" y2="39.649"/>
		
			<line fill="none" stroke="#C90D0C" stroke-width="0.1524" stroke-linecap="round" x1="94.73" y1="39.649" x2="95.449" y2="40.369"/>
		<line fill="none" stroke="#C90D0C" stroke-width="0.1524" stroke-linecap="round" x1="94.73" y1="39.649" x2="91.13" y2="38.21"/>
		<line fill="none" stroke="#C90D0C" stroke-width="0.1524" stroke-linecap="round" x1="91.13" y1="38.21" x2="93.29" y2="36.05"/>
		
			<line fill="none" stroke="#C90D0C" stroke-width="0.254" stroke-linecap="round" x1="94.369" y1="39.289" x2="93.29" y2="36.769"/>
		<line fill="none" stroke="#C90D0C" stroke-width="0.254" stroke-linecap="round" x1="93.29" y1="36.769" x2="91.85" y2="38.21"/>
		<line fill="none" stroke="#C90D0C" stroke-width="0.254" stroke-linecap="round" x1="91.85" y1="38.21" x2="94.369" y2="39.289"/>
		
			<line fill="none" stroke="#C90D0C" stroke-width="0.254" stroke-linecap="round" x1="94.369" y1="39.289" x2="92.93" y2="37.849"/>
		<line fill="none" stroke="#C90D0C" stroke-width="0.254" stroke-linecap="round" x1="92.57" y1="38.21" x2="93.29" y2="37.489"/>
		<text transform="matrix(1 0 0 1 102.6504 25.9685)" font-family="'TimesNewRomanPSMT'" font-size="5.544">Q51</text>
		<text transform="matrix(1 0 0 1 102.6504 33.1697)" font-family="'TimesNewRomanPSMT'" font-size="5.544">NPN</text>
	</g>
	<g>
		<title>PART SUPPLY3</title>
		
			<line fill="none" stroke="#C90D0C" stroke-width="0.1524" stroke-linecap="round" x1="-34.15" y1="-10.031" x2="-30.55" y2="-13.631"/>
		
			<line fill="none" stroke="#C90D0C" stroke-width="0.1524" stroke-linecap="round" x1="-30.55" y1="-13.631" x2="9.05" y2="-13.631"/>
		<line fill="none" stroke="#C90D0C" stroke-width="0.1524" stroke-linecap="round" x1="9.05" y1="-13.631" x2="9.05" y2="-6.431"/>
		
			<line fill="none" stroke="#C90D0C" stroke-width="0.1524" stroke-linecap="round" x1="9.05" y1="-6.431" x2="-30.55" y2="-6.431"/>
		
			<line fill="none" stroke="#C90D0C" stroke-width="0.1524" stroke-linecap="round" x1="-34.15" y1="-10.031" x2="-30.55" y2="-6.431"/>
		<text transform="matrix(1 0 0 1 -4.1465 -7.8713)" font-family="'TimesNewRomanPSMT'" font-size="5.544">EP+</text>
	</g>
</g>
<text transform="matrix(1 0 0 1 116.75 -19.6633)" font-family="'TimesNewRomanPSMT'" font-size="5.544">IOUT</text>
</svg>
