<?xml version="1.0" encoding="utf-8"?>
<!-- Generator: Adobe Illustrator 16.0.0, SVG Export Plug-In . SVG Version: 6.00 Build 0)  -->
<!DOCTYPE svg PUBLIC "-//W3C//DTD SVG 1.1//EN" "http://www.w3.org/Graphics/SVG/1.1/DTD/svg11.dtd">
<svg version="1.1" id="Layer_1" xmlns="http://www.w3.org/2000/svg" xmlns:xlink="http://www.w3.org/1999/xlink" x="0px" y="0px"
	 width="294px" height="500.5px" viewBox="-71.982 -98.131 294 500.5" enable-background="new -71.982 -98.131 294 500.5"
	 xml:space="preserve">
<title>C:/Users/medua/Dropbox/00Iniciode_Doctorado/Gits/EstimulemaPCB/Estimulema v2.sch - sheet 12</title>
<desc>generated by eagle2svg 1.1, developed by http://www.nicai-systems.de</desc>
<g id="surface0">
	<text transform="matrix(1 0 0 1 -59.873 -85.4731)" font-family="'TimesNewRomanPSMT'" font-size="6">Conector BTH</text>
	
		<line fill="none" stroke="#000000" stroke-width="0.1524" stroke-linecap="round" x1="-59.873" y1="-78.272" x2="-13.073" y2="-78.272"/>
	
		<line fill="none" stroke="#000000" stroke-width="0.1524" stroke-linecap="round" x1="-13.073" y1="-78.272" x2="-13.073" y2="-20.673"/>
	
		<line fill="none" stroke="#000000" stroke-width="0.1524" stroke-linecap="round" x1="-13.073" y1="-20.673" x2="-59.873" y2="-20.673"/>
	
		<line fill="none" stroke="#000000" stroke-width="0.1524" stroke-linecap="round" x1="-59.873" y1="-20.673" x2="-59.873" y2="-78.272"/>
	<g>
		<title>NET !SYNC</title>
		
			<line fill="none" stroke="#0DAB76" stroke-width="0.1524" stroke-linecap="round" x1="58.927" y1="40.527" x2="30.127" y2="40.527"/>
		<text transform="matrix(1 0 0 1 30.127 40.5269)" font-family="'TimesNewRomanPSMT'" font-size="6">!SYNC</text>
	</g>
	<g>
		<title>NET +5_D</title>
		
			<line fill="none" stroke="#0DAB76" stroke-width="0.1524" stroke-linecap="round" x1="1.327" y1="299.727" x2="4.927" y2="299.727"/>
		
			<line fill="none" stroke="#0DAB76" stroke-width="0.1524" stroke-linecap="round" x1="4.927" y1="299.727" x2="22.927" y2="299.727"/>
		
			<line fill="none" stroke="#0DAB76" stroke-width="0.1524" stroke-linecap="round" x1="-20.272" y1="-71.073" x2="210.127" y2="-71.073"/>
		
			<line fill="none" stroke="#0DAB76" stroke-width="0.1524" stroke-linecap="round" x1="210.127" y1="-71.073" x2="210.127" y2="-31.473"/>
		
			<line fill="none" stroke="#0DAB76" stroke-width="0.1524" stroke-linecap="round" x1="210.127" y1="-31.473" x2="188.528" y2="-31.473"/>
		
			<line fill="none" stroke="#0DAB76" stroke-width="0.1524" stroke-linecap="round" x1="210.127" y1="-31.473" x2="210.127" y2="180.927"/>
		
			<line fill="none" stroke="#0DAB76" stroke-width="0.1524" stroke-linecap="round" x1="210.127" y1="180.927" x2="210.127" y2="206.127"/>
		
			<line fill="none" stroke="#0DAB76" stroke-width="0.1524" stroke-linecap="round" x1="210.127" y1="206.127" x2="184.927" y2="206.127"/>
		
			<line fill="none" stroke="#0DAB76" stroke-width="0.1524" stroke-linecap="round" x1="26.527" y1="180.927" x2="210.127" y2="180.927"/>
		
			<line fill="none" stroke="#0DAB76" stroke-width="0.1524" stroke-linecap="round" x1="26.527" y1="173.727" x2="26.527" y2="180.927"/>
		
			<line fill="none" stroke="#0DAB76" stroke-width="0.1524" stroke-linecap="round" x1="22.927" y1="299.727" x2="26.527" y2="299.727"/>
		
			<line fill="none" stroke="#0DAB76" stroke-width="0.1524" stroke-linecap="round" x1="26.527" y1="299.727" x2="26.527" y2="180.927"/>
		<circle fill="#0DAB76" cx="210.127" cy="-31.473" r="1.44"/>
		<circle fill="#0DAB76" cx="210.127" cy="180.927" r="1.44"/>
		<circle fill="#0DAB76" cx="26.527" cy="180.927" r="1.44"/>
		<text transform="matrix(1 0 0 1 194.9282 -74.6724)" font-family="'TimesNewRomanPSMT'" font-size="6">+5_D</text>
	</g>
	<g>
		<title>NET C_CH1</title>
		
			<line fill="none" stroke="#0DAB76" stroke-width="0.1524" stroke-linecap="round" x1="-38.272" y1="11.727" x2="-59.873" y2="11.727"/>
		<text transform="matrix(1 0 0 1 -59.873 11.7261)" font-family="'TimesNewRomanPSMT'" font-size="6">C_CH1</text>
	</g>
	<g>
		<title>NET C_CH2</title>
		
			<line fill="none" stroke="#0DAB76" stroke-width="0.1524" stroke-linecap="round" x1="-38.272" y1="33.327" x2="-59.873" y2="33.327"/>
		<text transform="matrix(1 0 0 1 -59.873 33.3276)" font-family="'TimesNewRomanPSMT'" font-size="6">C_CH2</text>
	</g>
	<g>
		<title>NET DIN</title>
		
			<line fill="none" stroke="#0DAB76" stroke-width="0.1524" stroke-linecap="round" x1="58.927" y1="47.727" x2="30.127" y2="47.727"/>
		<text transform="matrix(1 0 0 1 30.127 47.7261)" font-family="'TimesNewRomanPSMT'" font-size="6">DIN</text>
	</g>
	<g>
		<title>NET GND_D</title>
		
			<line fill="none" stroke="#0DAB76" stroke-width="0.1524" stroke-linecap="round" x1="188.528" y1="-9.873" x2="195.727" y2="-9.873"/>
		
			<line fill="none" stroke="#0DAB76" stroke-width="0.1524" stroke-linecap="round" x1="195.727" y1="-9.873" x2="195.727" y2="33.327"/>
		
			<line fill="none" stroke="#0DAB76" stroke-width="0.1524" stroke-linecap="round" x1="195.727" y1="33.327" x2="188.528" y2="33.327"/>
		
			<line fill="none" stroke="#0DAB76" stroke-width="0.1524" stroke-linecap="round" x1="195.727" y1="378.927" x2="195.727" y2="270.927"/>
		
			<line fill="none" stroke="#0DAB76" stroke-width="0.1524" stroke-linecap="round" x1="195.727" y1="270.927" x2="195.727" y2="227.727"/>
		
			<line fill="none" stroke="#0DAB76" stroke-width="0.1524" stroke-linecap="round" x1="195.727" y1="227.727" x2="195.727" y2="162.927"/>
		
			<line fill="none" stroke="#0DAB76" stroke-width="0.1524" stroke-linecap="round" x1="195.727" y1="162.927" x2="195.727" y2="33.327"/>
		
			<line fill="none" stroke="#0DAB76" stroke-width="0.1524" stroke-linecap="round" x1="58.927" y1="112.527" x2="48.127" y2="112.527"/>
		
			<line fill="none" stroke="#0DAB76" stroke-width="0.1524" stroke-linecap="round" x1="48.127" y1="112.527" x2="48.127" y2="126.927"/>
		
			<line fill="none" stroke="#0DAB76" stroke-width="0.1524" stroke-linecap="round" x1="48.127" y1="126.927" x2="48.127" y2="162.927"/>
		
			<line fill="none" stroke="#0DAB76" stroke-width="0.1524" stroke-linecap="round" x1="48.127" y1="162.927" x2="195.727" y2="162.927"/>
		
			<line fill="none" stroke="#0DAB76" stroke-width="0.1524" stroke-linecap="round" x1="-2.272" y1="126.927" x2="48.127" y2="126.927"/>
		
			<line fill="none" stroke="#0DAB76" stroke-width="0.1524" stroke-linecap="round" x1="184.927" y1="227.727" x2="195.727" y2="227.727"/>
		
			<line fill="none" stroke="#0DAB76" stroke-width="0.1524" stroke-linecap="round" x1="184.927" y1="270.927" x2="195.727" y2="270.927"/>
		
			<line fill="none" stroke="#0DAB76" stroke-width="0.1524" stroke-linecap="round" x1="1.327" y1="314.127" x2="30.127" y2="314.127"/>
		
			<line fill="none" stroke="#0DAB76" stroke-width="0.1524" stroke-linecap="round" x1="30.127" y1="314.127" x2="40.927" y2="314.127"/>
		
			<line fill="none" stroke="#0DAB76" stroke-width="0.1524" stroke-linecap="round" x1="48.127" y1="162.927" x2="48.127" y2="314.127"/>
		
			<line fill="none" stroke="#0DAB76" stroke-width="0.1524" stroke-linecap="round" x1="48.127" y1="314.127" x2="40.927" y2="314.127"/>
		
			<line fill="none" stroke="#0DAB76" stroke-width="0.1524" stroke-linecap="round" x1="-20.272" y1="-63.873" x2="37.327" y2="-63.873"/>
		
			<line fill="none" stroke="#0DAB76" stroke-width="0.1524" stroke-linecap="round" x1="37.327" y1="-63.873" x2="55.327" y2="-63.873"/>
		
			<line fill="none" stroke="#0DAB76" stroke-width="0.1524" stroke-linecap="round" x1="37.327" y1="-49.473" x2="37.327" y2="-63.873"/>
		
			<line fill="none" stroke="#0DAB76" stroke-width="0.1524" stroke-linecap="round" x1="55.327" y1="-63.873" x2="195.727" y2="-63.873"/>
		
			<line fill="none" stroke="#0DAB76" stroke-width="0.1524" stroke-linecap="round" x1="195.727" y1="-63.873" x2="195.727" y2="-9.873"/>
		<circle fill="#0DAB76" cx="195.727" cy="33.327" r="1.44"/>
		<circle fill="#0DAB76" cx="195.727" cy="162.927" r="1.44"/>
		<circle fill="#0DAB76" cx="48.127" cy="126.927" r="1.44"/>
		<circle fill="#0DAB76" cx="195.727" cy="227.727" r="1.44"/>
		<circle fill="#0DAB76" cx="195.727" cy="270.927" r="1.439"/>
		<circle fill="#0DAB76" cx="48.127" cy="162.927" r="1.44"/>
		<circle fill="#0DAB76" cx="37.327" cy="-63.873" r="1.44"/>
		<circle fill="#0DAB76" cx="195.727" cy="-9.873" r="1.44"/>
	</g>
	<g>
		<title>NET N$51</title>
		
			<line fill="none" stroke="#0DAB76" stroke-width="0.1524" stroke-linecap="round" x1="58.927" y1="11.727" x2="-9.473" y2="11.727"/>
	</g>
	<g>
		<title>NET N$52</title>
		
			<line fill="none" stroke="#0DAB76" stroke-width="0.1524" stroke-linecap="round" x1="58.927" y1="18.927" x2="1.327" y2="18.927"/>
		
			<line fill="none" stroke="#0DAB76" stroke-width="0.1524" stroke-linecap="round" x1="1.327" y1="18.927" x2="1.327" y2="33.327"/>
		
			<line fill="none" stroke="#0DAB76" stroke-width="0.1524" stroke-linecap="round" x1="1.327" y1="33.327" x2="-9.473" y2="33.327"/>
	</g>
	<g>
		<title>NET N$53</title>
		
			<line fill="none" stroke="#0DAB76" stroke-width="0.1524" stroke-linecap="round" x1="8.527" y1="-24.273" x2="8.527" y2="-27.873"/>
		
			<line fill="none" stroke="#0DAB76" stroke-width="0.1524" stroke-linecap="round" x1="8.527" y1="-27.873" x2="8.527" y2="-49.473"/>
		
			<line fill="none" stroke="#0DAB76" stroke-width="0.1524" stroke-linecap="round" x1="-20.272" y1="-27.873" x2="8.527" y2="-27.873"/>
		<circle fill="#0DAB76" cx="8.527" cy="-27.873" r="1.44"/>
	</g>
	<g>
		<title>NET N$76</title>
		
			<line fill="none" stroke="#0DAB76" stroke-width="0.1524" stroke-linecap="round" x1="37.327" y1="-24.273" x2="58.927" y2="-24.273"/>
	</g>
	<g>
		<title>NET N$77</title>
		
			<line fill="none" stroke="#0DAB76" stroke-width="0.1524" stroke-linecap="round" x1="58.927" y1="-31.473" x2="37.327" y2="-31.473"/>
		
			<line fill="none" stroke="#0DAB76" stroke-width="0.1524" stroke-linecap="round" x1="37.327" y1="-31.473" x2="37.327" y2="-35.073"/>
		
			<line fill="none" stroke="#0DAB76" stroke-width="0.1524" stroke-linecap="round" x1="37.327" y1="-35.073" x2="-20.272" y2="-35.073"/>
	</g>
	<g>
		<title>NET N$78</title>
		
			<line fill="none" stroke="#0DAB76" stroke-width="0.1524" stroke-linecap="round" x1="58.927" y1="134.127" x2="26.527" y2="134.127"/>
		
			<line fill="none" stroke="#0DAB76" stroke-width="0.1524" stroke-linecap="round" x1="26.527" y1="134.127" x2="-2.272" y2="134.127"/>
		
			<line fill="none" stroke="#0DAB76" stroke-width="0.1524" stroke-linecap="round" x1="26.527" y1="144.927" x2="26.527" y2="141.327"/>
		
			<line fill="none" stroke="#0DAB76" stroke-width="0.1524" stroke-linecap="round" x1="26.527" y1="141.327" x2="26.527" y2="134.127"/>
		<circle fill="#0DAB76" cx="26.527" cy="134.127" r="1.44"/>
	</g>
	<g>
		<title>NET N$79</title>
		
			<line fill="none" stroke="#0DAB76" stroke-width="0.1524" stroke-linecap="round" x1="55.327" y1="371.727" x2="-59.873" y2="371.727"/>
		
			<line fill="none" stroke="#0DAB76" stroke-width="0.1524" stroke-linecap="round" x1="58.927" y1="26.127" x2="12.127" y2="26.127"/>
		
			<line fill="none" stroke="#0DAB76" stroke-width="0.1524" stroke-linecap="round" x1="12.127" y1="26.127" x2="12.127" y2="69.327"/>
		
			<line fill="none" stroke="#0DAB76" stroke-width="0.1524" stroke-linecap="round" x1="12.127" y1="69.327" x2="-59.873" y2="69.327"/>
		
			<line fill="none" stroke="#0DAB76" stroke-width="0.1524" stroke-linecap="round" x1="-59.873" y1="69.327" x2="-59.873" y2="371.727"/>
	</g>
	<g>
		<title>NET SCL2</title>
		
			<line fill="none" stroke="#0DAB76" stroke-width="0.1524" stroke-linecap="round" x1="1.327" y1="342.927" x2="22.927" y2="342.927"/>
		
			<line fill="none" stroke="#0DAB76" stroke-width="0.1524" stroke-linecap="round" x1="55.327" y1="342.927" x2="33.728" y2="342.927"/>
		
			<line fill="none" stroke="#0DAB76" stroke-width="0.1524" stroke-linecap="round" x1="22.927" y1="342.927" x2="33.728" y2="342.927"/>
	</g>
	<g>
		<title>NET SCLK</title>
		
			<line fill="none" stroke="#0DAB76" stroke-width="0.1524" stroke-linecap="round" x1="58.927" y1="62.127" x2="30.127" y2="62.127"/>
		<text transform="matrix(1 0 0 1 30.127 62.1265)" font-family="'TimesNewRomanPSMT'" font-size="6">SCLK</text>
	</g>
	<g>
		<title>NET SDA2</title>
		
			<line fill="none" stroke="#0DAB76" stroke-width="0.1524" stroke-linecap="round" x1="55.327" y1="335.727" x2="33.728" y2="335.727"/>
		
			<line fill="none" stroke="#0DAB76" stroke-width="0.1524" stroke-linecap="round" x1="33.728" y1="335.727" x2="33.728" y2="328.527"/>
		
			<line fill="none" stroke="#0DAB76" stroke-width="0.1524" stroke-linecap="round" x1="22.927" y1="328.527" x2="1.327" y2="328.527"/>
		
			<line fill="none" stroke="#0DAB76" stroke-width="0.1524" stroke-linecap="round" x1="33.728" y1="328.527" x2="22.927" y2="328.527"/>
	</g>
	<g>
		<title>PART ACCELEROMETRO</title>
		
			<line fill="none" stroke="#C90D0C" stroke-width="0.1524" stroke-linecap="round" x1="1.327" y1="314.127" x2="-13.073" y2="314.127"/>
		<text transform="matrix(1 0 0 1 -29.9922 316.2866)" font-family="'TimesNewRomanPSMT'" font-size="6">GND</text>
		
			<line fill="none" stroke="#C90D0C" stroke-width="0.1524" stroke-linecap="round" x1="1.327" y1="342.927" x2="-13.073" y2="342.927"/>
		<text transform="matrix(1 0 0 1 -28.4121 345.0874)" font-family="'TimesNewRomanPSMT'" font-size="6">SCL</text>
		
			<line fill="none" stroke="#C90D0C" stroke-width="0.1524" stroke-linecap="round" x1="1.327" y1="328.527" x2="-13.073" y2="328.527"/>
		<text transform="matrix(1 0 0 1 -29.2031 330.687)" font-family="'TimesNewRomanPSMT'" font-size="6">SDA</text>
		
			<line fill="none" stroke="#C90D0C" stroke-width="0.1524" stroke-linecap="round" x1="1.327" y1="299.727" x2="-13.073" y2="299.727"/>
		<text transform="matrix(1 0 0 1 -28.1426 301.8862)" font-family="'TimesNewRomanPSMT'" font-size="6">VIN</text>
		
			<line fill="none" stroke="#C90D0C" stroke-width="0.254" stroke-linecap="round" x1="-49.073" y1="292.527" x2="-13.073" y2="292.527"/>
		
			<line fill="none" stroke="#C90D0C" stroke-width="0.254" stroke-linecap="round" x1="-13.073" y1="292.527" x2="-13.073" y2="350.127"/>
		
			<line fill="none" stroke="#C90D0C" stroke-width="0.254" stroke-linecap="round" x1="-13.073" y1="350.127" x2="-49.073" y2="350.127"/>
		
			<line fill="none" stroke="#C90D0C" stroke-width="0.254" stroke-linecap="round" x1="-49.073" y1="350.127" x2="-49.073" y2="292.527"/>
		<text transform="matrix(1 0 0 1 -49.0723 288.9272)" font-family="'TimesNewRomanPSMT'" font-size="6">ACCELEROMETRO</text>
	</g>
	<g>
		<title>PART GND_D5</title>
		
			<line fill="none" stroke="#C90D0C" stroke-width="0.1524" stroke-linecap="round" x1="195.727" y1="378.927" x2="195.727" y2="386.127"/>
		
			<line fill="none" stroke="#C90D0C" stroke-width="0.254" stroke-linecap="round" x1="190.327" y1="386.127" x2="201.127" y2="386.127"/>
		<text transform="matrix(1 0 0 1 188.5278 393.3276)" font-family="'TimesNewRomanPSMT'" font-size="6">GND_D</text>
		<text transform="matrix(1 0 0 1 198.9673 385.4077)" fill="#C90D0C" font-family="'TimesNewRomanPSMT'" font-size="6">I</text>
	</g>
	<g>
		<title>PART IE_BTN_E</title>
		
			<line fill="none" stroke="#C90D0C" stroke-width="0.1524" stroke-linecap="round" x1="-2.272" y1="126.927" x2="-3.856" y2="126.927"/>
		<circle fill="none" stroke="#C90D0C" stroke-width="0.1524" cx="-6.665" cy="126.927" r="2.808"/>
		
			<line fill="none" stroke="#C90D0C" stroke-width="0.1524" stroke-linecap="round" x1="-2.272" y1="134.127" x2="-3.856" y2="134.127"/>
		<circle fill="none" stroke="#C90D0C" stroke-width="0.1524" cx="-6.665" cy="134.127" r="2.808"/>
		
			<line fill="none" stroke="#C90D0C" stroke-width="0.4064" stroke-linecap="round" x1="8.527" y1="141.327" x2="-13.073" y2="141.327"/>
		
			<line fill="none" stroke="#C90D0C" stroke-width="0.4064" stroke-linecap="round" x1="-13.073" y1="141.327" x2="-13.073" y2="119.727"/>
		
			<line fill="none" stroke="#C90D0C" stroke-width="0.4064" stroke-linecap="round" x1="-13.073" y1="119.727" x2="8.527" y2="119.727"/>
		
			<line fill="none" stroke="#C90D0C" stroke-width="0.4064" stroke-linecap="round" x1="8.527" y1="119.727" x2="8.527" y2="141.327"/>
		<text transform="matrix(1 0 0 1 -15.7246 116.9272)" font-family="'TimesNewRomanPSMT'" font-size="6">IE_BTN_E</text>
	</g>
	<g>
		<title>PART K1GND</title>
		
			<line fill="none" stroke="#C90D0C" stroke-width="0.1524" stroke-linecap="round" x1="-20.272" y1="-63.873" x2="-27.473" y2="-63.873"/>
		
			<line fill="none" stroke="#C90D0C" stroke-width="0.6096" stroke-linecap="round" x1="-31.073" y1="-63.873" x2="-27.473" y2="-63.873"/>
		<text transform="matrix(1 0 0 1 -50.7754 -61.7134)" font-family="'TimesNewRomanPSMT'" font-size="6">K1GND</text>
	</g>
	<g>
		<title>PART K1RX</title>
		
			<line fill="none" stroke="#C90D0C" stroke-width="0.1524" stroke-linecap="round" x1="-20.272" y1="-27.873" x2="-27.473" y2="-27.873"/>
		
			<line fill="none" stroke="#C90D0C" stroke-width="0.6096" stroke-linecap="round" x1="-31.073" y1="-27.873" x2="-27.473" y2="-27.873"/>
		<text transform="matrix(1 0 0 1 -47.082 -25.7134)" font-family="'TimesNewRomanPSMT'" font-size="6">K1RX</text>
	</g>
	<g>
		<title>PART K1TX</title>
		
			<line fill="none" stroke="#C90D0C" stroke-width="0.1524" stroke-linecap="round" x1="-20.272" y1="-35.073" x2="-27.473" y2="-35.073"/>
		
			<line fill="none" stroke="#C90D0C" stroke-width="0.6096" stroke-linecap="round" x1="-31.073" y1="-35.073" x2="-27.473" y2="-35.073"/>
		<text transform="matrix(1 0 0 1 -46.8145 -32.9126)" font-family="'TimesNewRomanPSMT'" font-size="6">K1TX</text>
	</g>
	<g>
		<title>PART K1VCC</title>
		
			<line fill="none" stroke="#C90D0C" stroke-width="0.1524" stroke-linecap="round" x1="-20.272" y1="-71.073" x2="-27.473" y2="-71.073"/>
		
			<line fill="none" stroke="#C90D0C" stroke-width="0.6096" stroke-linecap="round" x1="-31.073" y1="-71.073" x2="-27.473" y2="-71.073"/>
		<text transform="matrix(1 0 0 1 -50.252 -68.9126)" font-family="'TimesNewRomanPSMT'" font-size="6">K1VCC</text>
	</g>
	<g>
		<title>PART R29</title>
		
			<line fill="none" stroke="#C90D0C" stroke-width="0.1524" stroke-linecap="round" x1="-38.272" y1="33.327" x2="-31.073" y2="33.327"/>
		
			<line fill="none" stroke="#C90D0C" stroke-width="0.1524" stroke-linecap="round" x1="-9.473" y1="33.327" x2="-16.673" y2="33.327"/>
		
			<line fill="none" stroke="#C90D0C" stroke-width="0.254" stroke-linecap="round" x1="-31.073" y1="35.847" x2="-16.673" y2="35.847"/>
		
			<line fill="none" stroke="#C90D0C" stroke-width="0.254" stroke-linecap="round" x1="-16.673" y1="30.807" x2="-31.073" y2="30.807"/>
		
			<line fill="none" stroke="#C90D0C" stroke-width="0.254" stroke-linecap="round" x1="-16.673" y1="35.847" x2="-16.673" y2="30.807"/>
		
			<line fill="none" stroke="#C90D0C" stroke-width="0.254" stroke-linecap="round" x1="-31.073" y1="35.847" x2="-31.073" y2="30.807"/>
		<text transform="matrix(1 0 0 1 -34.6719 29.0796)" font-family="'TimesNewRomanPSMT'" font-size="6">R29</text>
	</g>
	<g>
		<title>PART R30</title>
		
			<line fill="none" stroke="#C90D0C" stroke-width="0.1524" stroke-linecap="round" x1="-38.272" y1="11.727" x2="-31.073" y2="11.727"/>
		
			<line fill="none" stroke="#C90D0C" stroke-width="0.1524" stroke-linecap="round" x1="-9.473" y1="11.727" x2="-16.673" y2="11.727"/>
		
			<line fill="none" stroke="#C90D0C" stroke-width="0.254" stroke-linecap="round" x1="-31.073" y1="14.247" x2="-16.673" y2="14.247"/>
		
			<line fill="none" stroke="#C90D0C" stroke-width="0.254" stroke-linecap="round" x1="-16.673" y1="9.207" x2="-31.073" y2="9.207"/>
		
			<line fill="none" stroke="#C90D0C" stroke-width="0.254" stroke-linecap="round" x1="-16.673" y1="14.247" x2="-16.673" y2="9.207"/>
		
			<line fill="none" stroke="#C90D0C" stroke-width="0.254" stroke-linecap="round" x1="-31.073" y1="14.247" x2="-31.073" y2="9.207"/>
		<text transform="matrix(1 0 0 1 -34.6719 7.478)" font-family="'TimesNewRomanPSMT'" font-size="6">R30</text>
	</g>
	<g>
		<title>PART R35</title>
		
			<line fill="none" stroke="#C90D0C" stroke-width="0.1524" stroke-linecap="round" x1="8.527" y1="-49.473" x2="15.728" y2="-49.473"/>
		
			<line fill="none" stroke="#C90D0C" stroke-width="0.1524" stroke-linecap="round" x1="37.327" y1="-49.473" x2="30.127" y2="-49.473"/>
		
			<line fill="none" stroke="#C90D0C" stroke-width="0.254" stroke-linecap="round" x1="15.728" y1="-46.953" x2="30.127" y2="-46.953"/>
		
			<line fill="none" stroke="#C90D0C" stroke-width="0.254" stroke-linecap="round" x1="30.127" y1="-51.993" x2="15.728" y2="-51.993"/>
		
			<line fill="none" stroke="#C90D0C" stroke-width="0.254" stroke-linecap="round" x1="30.127" y1="-46.953" x2="30.127" y2="-51.993"/>
		
			<line fill="none" stroke="#C90D0C" stroke-width="0.254" stroke-linecap="round" x1="15.728" y1="-46.953" x2="15.728" y2="-51.993"/>
		<text transform="matrix(1 0 0 1 12.127 -53.7212)" font-family="'TimesNewRomanPSMT'" font-size="6">R35</text>
	</g>
	<g>
		<title>PART R36</title>
		
			<line fill="none" stroke="#C90D0C" stroke-width="0.1524" stroke-linecap="round" x1="8.527" y1="-24.273" x2="15.728" y2="-24.273"/>
		
			<line fill="none" stroke="#C90D0C" stroke-width="0.1524" stroke-linecap="round" x1="37.327" y1="-24.273" x2="30.127" y2="-24.273"/>
		
			<line fill="none" stroke="#C90D0C" stroke-width="0.254" stroke-linecap="round" x1="15.728" y1="-21.753" x2="30.127" y2="-21.753"/>
		
			<line fill="none" stroke="#C90D0C" stroke-width="0.254" stroke-linecap="round" x1="30.127" y1="-26.793" x2="15.728" y2="-26.793"/>
		
			<line fill="none" stroke="#C90D0C" stroke-width="0.254" stroke-linecap="round" x1="30.127" y1="-21.753" x2="30.127" y2="-26.793"/>
		
			<line fill="none" stroke="#C90D0C" stroke-width="0.254" stroke-linecap="round" x1="15.728" y1="-21.753" x2="15.728" y2="-26.793"/>
		<text transform="matrix(1 0 0 1 12.127 -28.522)" font-family="'TimesNewRomanPSMT'" font-size="6">R36</text>
	</g>
	<g>
		<title>PART R37</title>
		
			<line fill="none" stroke="#C90D0C" stroke-width="0.1524" stroke-linecap="round" x1="26.527" y1="144.927" x2="26.527" y2="152.127"/>
		
			<line fill="none" stroke="#C90D0C" stroke-width="0.1524" stroke-linecap="round" x1="26.527" y1="173.727" x2="26.527" y2="166.527"/>
		
			<line fill="none" stroke="#C90D0C" stroke-width="0.254" stroke-linecap="round" x1="24.007" y1="152.127" x2="24.007" y2="166.527"/>
		
			<line fill="none" stroke="#C90D0C" stroke-width="0.254" stroke-linecap="round" x1="29.047" y1="166.527" x2="29.047" y2="152.127"/>
		
			<line fill="none" stroke="#C90D0C" stroke-width="0.254" stroke-linecap="round" x1="24.007" y1="166.527" x2="29.047" y2="166.527"/>
		
			<line fill="none" stroke="#C90D0C" stroke-width="0.254" stroke-linecap="round" x1="24.007" y1="152.127" x2="29.047" y2="152.127"/>
		<text transform="matrix(6.123234e-017 -1 1 6.123234e-017 35.8145 164.769)" font-family="'TimesNewRomanPSMT'" font-size="6">R37</text>
	</g>
	<g>
		<title>PART UC5</title>
		
			<line fill="none" stroke="#C90D0C" stroke-width="0.1524" stroke-linecap="round" x1="58.927" y1="-31.473" x2="73.327" y2="-31.473"/>
		<text transform="matrix(1 0 0 1 79.9512 -29.313)" font-family="'TimesNewRomanPSMT'" font-size="6">0/RX1/T</text>
		
			<line fill="none" stroke="#C90D0C" stroke-width="0.1524" stroke-linecap="round" x1="58.927" y1="-24.273" x2="73.327" y2="-24.273"/>
		<text transform="matrix(1 0 0 1 79.9512 -22.1138)" font-family="'TimesNewRomanPSMT'" font-size="6">1/TX1/T</text>
		
			<line fill="none" stroke="#C90D0C" stroke-width="0.1524" stroke-linecap="round" x1="58.927" y1="-17.073" x2="73.327" y2="-17.073"/>
		<text transform="matrix(1 0 0 1 79.9512 -14.9126)" font-family="'TimesNewRomanPSMT'" font-size="6">2</text>
		
			<line fill="none" stroke="#C90D0C" stroke-width="0.1524" stroke-linecap="round" x1="188.528" y1="-24.273" x2="174.127" y2="-24.273"/>
		<text transform="matrix(1 0 0 1 158.1313 -22.1138)" font-family="'TimesNewRomanPSMT'" font-size="6">3.3V</text>
		
			<line fill="none" stroke="#C90D0C" stroke-width="0.1524" stroke-linecap="round" x1="58.927" y1="-9.873" x2="73.327" y2="-9.873"/>
		<text transform="matrix(1 0 0 1 79.9512 -7.7134)" font-family="'TimesNewRomanPSMT'" font-size="6">3/PWM</text>
		
			<line fill="none" stroke="#C90D0C" stroke-width="0.1524" stroke-linecap="round" x1="58.927" y1="-2.673" x2="73.327" y2="-2.673"/>
		<text transform="matrix(1 0 0 1 79.9512 -0.5142)" font-family="'TimesNewRomanPSMT'" font-size="6">4/PWM</text>
		
			<line fill="none" stroke="#C90D0C" stroke-width="0.1524" stroke-linecap="round" x1="58.927" y1="4.527" x2="73.327" y2="4.527"/>
		<text transform="matrix(1 0 0 1 79.9512 6.687)" font-family="'TimesNewRomanPSMT'" font-size="6">5/PWM</text>
		
			<line fill="none" stroke="#C90D0C" stroke-width="0.1524" stroke-linecap="round" x1="58.927" y1="11.727" x2="73.327" y2="11.727"/>
		<text transform="matrix(1 0 0 1 79.9512 13.8862)" font-family="'TimesNewRomanPSMT'" font-size="6">6/PWM</text>
		
			<line fill="none" stroke="#C90D0C" stroke-width="0.1524" stroke-linecap="round" x1="58.927" y1="18.927" x2="73.327" y2="18.927"/>
		<text transform="matrix(1 0 0 1 79.9512 21.0874)" font-family="'TimesNewRomanPSMT'" font-size="6">7/RX3</text>
		
			<line fill="none" stroke="#C90D0C" stroke-width="0.1524" stroke-linecap="round" x1="58.927" y1="26.127" x2="73.327" y2="26.127"/>
		<text transform="matrix(1 0 0 1 79.9512 28.2866)" font-family="'TimesNewRomanPSMT'" font-size="6">8/TX3</text>
		
			<line fill="none" stroke="#C90D0C" stroke-width="0.1524" stroke-linecap="round" x1="58.927" y1="33.327" x2="73.327" y2="33.327"/>
		<text transform="matrix(1 0 0 1 79.9512 35.4858)" font-family="'TimesNewRomanPSMT'" font-size="6">9/RX2/PWM</text>
		
			<line fill="none" stroke="#C90D0C" stroke-width="0.1524" stroke-linecap="round" x1="58.927" y1="40.527" x2="73.327" y2="40.527"/>
		<text transform="matrix(1 0 0 1 79.9512 42.687)" font-family="'TimesNewRomanPSMT'" font-size="6">10/TX2/PWM</text>
		
			<line fill="none" stroke="#C90D0C" stroke-width="0.1524" stroke-linecap="round" x1="58.927" y1="47.727" x2="73.327" y2="47.727"/>
		<text transform="matrix(1 0 0 1 79.9512 49.8862)" font-family="'TimesNewRomanPSMT'" font-size="6">11/MOSI</text>
		
			<line fill="none" stroke="#C90D0C" stroke-width="0.1524" stroke-linecap="round" x1="58.927" y1="54.927" x2="73.327" y2="54.927"/>
		<text transform="matrix(1 0 0 1 79.9512 57.0874)" font-family="'TimesNewRomanPSMT'" font-size="6">12/MISO</text>
		
			<line fill="none" stroke="#C90D0C" stroke-width="0.1524" stroke-linecap="round" x1="58.927" y1="62.127" x2="73.327" y2="62.127"/>
		<text transform="matrix(1 0 0 1 79.9512 64.2866)" font-family="'TimesNewRomanPSMT'" font-size="6">13/SCK/LED</text>
		
			<line fill="none" stroke="#C90D0C" stroke-width="0.1524" stroke-linecap="round" x1="58.927" y1="69.327" x2="73.327" y2="69.327"/>
		<text transform="matrix(1 0 0 1 79.9512 71.4858)" font-family="'TimesNewRomanPSMT'" font-size="6">14/A0</text>
		
			<line fill="none" stroke="#C90D0C" stroke-width="0.1524" stroke-linecap="round" x1="58.927" y1="76.527" x2="73.327" y2="76.527"/>
		<text transform="matrix(1 0 0 1 79.9512 78.687)" font-family="'TimesNewRomanPSMT'" font-size="6">15/A1/T</text>
		
			<line fill="none" stroke="#C90D0C" stroke-width="0.1524" stroke-linecap="round" x1="58.927" y1="83.727" x2="73.327" y2="83.727"/>
		<text transform="matrix(1 0 0 1 79.9512 85.8862)" font-family="'TimesNewRomanPSMT'" font-size="6">16/A2/T</text>
		
			<line fill="none" stroke="#C90D0C" stroke-width="0.1524" stroke-linecap="round" x1="58.927" y1="90.927" x2="73.327" y2="90.927"/>
		<text transform="matrix(1 0 0 1 79.9512 93.0874)" font-family="'TimesNewRomanPSMT'" font-size="6">17/A3/T</text>
		
			<line fill="none" stroke="#C90D0C" stroke-width="0.1524" stroke-linecap="round" x1="58.927" y1="98.127" x2="73.327" y2="98.127"/>
		<text transform="matrix(1 0 0 1 79.9512 100.2866)" font-family="'TimesNewRomanPSMT'" font-size="6">18/A4/T/SDA</text>
		
			<line fill="none" stroke="#C90D0C" stroke-width="0.1524" stroke-linecap="round" x1="58.927" y1="105.327" x2="73.327" y2="105.327"/>
		<text transform="matrix(1 0 0 1 79.9512 107.4858)" font-family="'TimesNewRomanPSMT'" font-size="6">19/A5/T/SCL</text>
		
			<line fill="none" stroke="#C90D0C" stroke-width="0.1524" stroke-linecap="round" x1="58.927" y1="112.527" x2="73.327" y2="112.527"/>
		<text transform="matrix(1 0 0 1 79.9512 114.687)" font-family="'TimesNewRomanPSMT'" font-size="6">20/A6/PWM</text>
		
			<line fill="none" stroke="#C90D0C" stroke-width="0.1524" stroke-linecap="round" x1="58.927" y1="119.727" x2="73.327" y2="119.727"/>
		<text transform="matrix(1 0 0 1 79.9512 121.8862)" font-family="'TimesNewRomanPSMT'" font-size="6">21/A7/PWM</text>
		
			<line fill="none" stroke="#C90D0C" stroke-width="0.1524" stroke-linecap="round" x1="58.927" y1="126.927" x2="73.327" y2="126.927"/>
		<text transform="matrix(1 0 0 1 79.9512 129.0874)" font-family="'TimesNewRomanPSMT'" font-size="6">22/A8/T/PWM</text>
		
			<line fill="none" stroke="#C90D0C" stroke-width="0.1524" stroke-linecap="round" x1="58.927" y1="134.127" x2="73.327" y2="134.127"/>
		<text transform="matrix(1 0 0 1 79.9512 136.2866)" font-family="'TimesNewRomanPSMT'" font-size="6">23/A9/T/PWM</text>
		
			<line fill="none" stroke="#C90D0C" stroke-width="0.1524" stroke-linecap="round" x1="188.528" y1="33.327" x2="174.127" y2="33.327"/>
		<text transform="matrix(1 0 0 1 153.7778 35.4858)" font-family="'TimesNewRomanPSMT'" font-size="6">AGND</text>
		
			<line fill="none" stroke="#C90D0C" stroke-width="0.1524" stroke-linecap="round" x1="188.528" y1="-9.873" x2="174.127" y2="-9.873"/>
		<text transform="matrix(1 0 0 1 157.2095 -7.7134)" font-family="'TimesNewRomanPSMT'" font-size="6">GND</text>
		
			<line fill="none" stroke="#C90D0C" stroke-width="0.1524" stroke-linecap="round" x1="188.528" y1="-31.473" x2="174.127" y2="-31.473"/>
		<text transform="matrix(1 0 0 1 159.0571 -29.313)" font-family="'TimesNewRomanPSMT'" font-size="6">VIN</text>
		
			<line fill="none" stroke="#C90D0C" stroke-width="0.254" stroke-linecap="round" x1="73.327" y1="148.527" x2="174.127" y2="148.527"/>
		
			<line fill="none" stroke="#C90D0C" stroke-width="0.254" stroke-linecap="round" x1="174.127" y1="148.527" x2="174.127" y2="-45.873"/>
		
			<line fill="none" stroke="#C90D0C" stroke-width="0.254" stroke-linecap="round" x1="174.127" y1="-45.873" x2="73.327" y2="-45.873"/>
		
			<line fill="none" stroke="#C90D0C" stroke-width="0.254" stroke-linecap="round" x1="73.327" y1="-45.873" x2="73.327" y2="148.527"/>
		<path fill="none" stroke="#000000" stroke-width="0.2032" stroke-linecap="round" d="M108.175-52.785v2.184 M108.175-50.601h1.68
			 M109.855-50.601v-2.184 M112.853-49.761h-0.672 M111.509-50.433l0.672,0.672 M111.509-50.433v-1.68 M112.181-52.785l-0.672,0.672
			 M112.181-52.785h0.672 M114.223-49.761h1.008 M115.231-49.761l0.672-0.672 M115.903-50.433v-0.336 M115.903-50.769l-0.672-0.672
			 M115.231-51.441h-1.008 M114.223-51.441v-1.344 M114.223-52.785h1.68"/>
		<path fill="none" stroke="#000000" stroke-width="0.2032" stroke-linecap="round" d="M116.936,155.439v-3.024 M116.095,152.415
			h1.68 M120.581,155.439h-1.344 M119.237,155.439v-3.024 M119.237,152.415h1.344 M119.237,153.759h1.008 M123.389,155.439h-1.344
			 M122.045,155.439v-3.024 M122.045,152.415h1.344 M122.045,153.759h1.008 M124.843,155.439v-3.024 M124.843,152.415l1.68,3.024
			 M126.523,155.439v-3.024 M129.091,155.439l0.672-0.672 M128.083,155.02l1.008,0.42 M128.839,152.415l-0.672,0.672
			 M129.595,152.667l-0.756-0.252 M128.167,153.087l0.336,0.588 M129.763,154.767l-0.336-0.588 M129.427,154.179l-0.924-0.504
			 M131.047,152.415l1.008,1.428 M132.055,153.843l1.008-1.428 M132.055,155.439v-1.596 M134.299,155.775h1.344 M137.047,155.439
			h0.84 M137.887,155.439v-1.68 M137.047,152.415h1.008 M138.055,153.759v-1.344 M138.055,153.759h-0.672"/>
	</g>
	<g>
		<title>PART UC6</title>
		
			<line fill="none" stroke="#C90D0C" stroke-width="0.1524" stroke-linecap="round" x1="55.327" y1="206.127" x2="69.728" y2="206.127"/>
		<text transform="matrix(1 0 0 1 76.3516 208.2866)" font-family="'TimesNewRomanPSMT'" font-size="6">0/RX1/T</text>
		
			<line fill="none" stroke="#C90D0C" stroke-width="0.1524" stroke-linecap="round" x1="55.327" y1="213.327" x2="69.728" y2="213.327"/>
		<text transform="matrix(1 0 0 1 76.3516 215.4858)" font-family="'TimesNewRomanPSMT'" font-size="6">1/TX1/T</text>
		
			<line fill="none" stroke="#C90D0C" stroke-width="0.1524" stroke-linecap="round" x1="55.327" y1="220.527" x2="69.728" y2="220.527"/>
		<text transform="matrix(1 0 0 1 76.3516 222.687)" font-family="'TimesNewRomanPSMT'" font-size="6">2</text>
		
			<line fill="none" stroke="#C90D0C" stroke-width="0.1524" stroke-linecap="round" x1="184.927" y1="213.327" x2="170.528" y2="213.327"/>
		<text transform="matrix(1 0 0 1 154.5317 215.4858)" font-family="'TimesNewRomanPSMT'" font-size="6">3.3V</text>
		
			<line fill="none" stroke="#C90D0C" stroke-width="0.1524" stroke-linecap="round" x1="55.327" y1="227.727" x2="69.728" y2="227.727"/>
		<text transform="matrix(1 0 0 1 76.3516 229.8862)" font-family="'TimesNewRomanPSMT'" font-size="6">3/PWM</text>
		
			<line fill="none" stroke="#C90D0C" stroke-width="0.1524" stroke-linecap="round" x1="55.327" y1="234.927" x2="69.728" y2="234.927"/>
		<text transform="matrix(1 0 0 1 76.3516 237.0874)" font-family="'TimesNewRomanPSMT'" font-size="6">4/PWM</text>
		
			<line fill="none" stroke="#C90D0C" stroke-width="0.1524" stroke-linecap="round" x1="55.327" y1="242.127" x2="69.728" y2="242.127"/>
		<text transform="matrix(1 0 0 1 76.3516 244.2866)" font-family="'TimesNewRomanPSMT'" font-size="6">5/PWM</text>
		
			<line fill="none" stroke="#C90D0C" stroke-width="0.1524" stroke-linecap="round" x1="55.327" y1="249.328" x2="69.728" y2="249.328"/>
		<text transform="matrix(1 0 0 1 76.3516 251.4858)" font-family="'TimesNewRomanPSMT'" font-size="6">6/PWM</text>
		
			<line fill="none" stroke="#C90D0C" stroke-width="0.1524" stroke-linecap="round" x1="55.327" y1="256.527" x2="69.728" y2="256.527"/>
		<text transform="matrix(1 0 0 1 76.3516 258.687)" font-family="'TimesNewRomanPSMT'" font-size="6">7/RX3</text>
		
			<line fill="none" stroke="#C90D0C" stroke-width="0.1524" stroke-linecap="round" x1="55.327" y1="263.728" x2="69.728" y2="263.728"/>
		<text transform="matrix(1 0 0 1 76.3516 265.8862)" font-family="'TimesNewRomanPSMT'" font-size="6">8/TX3</text>
		
			<line fill="none" stroke="#C90D0C" stroke-width="0.1524" stroke-linecap="round" x1="55.327" y1="270.927" x2="69.728" y2="270.927"/>
		<text transform="matrix(1 0 0 1 76.3516 273.0874)" font-family="'TimesNewRomanPSMT'" font-size="6">9/RX2/PWM</text>
		
			<line fill="none" stroke="#C90D0C" stroke-width="0.1524" stroke-linecap="round" x1="55.327" y1="278.127" x2="69.728" y2="278.127"/>
		<text transform="matrix(1 0 0 1 76.3516 280.2866)" font-family="'TimesNewRomanPSMT'" font-size="6">10/TX2/PWM</text>
		
			<line fill="none" stroke="#C90D0C" stroke-width="0.1524" stroke-linecap="round" x1="55.327" y1="285.328" x2="69.728" y2="285.328"/>
		<text transform="matrix(1 0 0 1 76.3516 287.4858)" font-family="'TimesNewRomanPSMT'" font-size="6">11/MOSI</text>
		
			<line fill="none" stroke="#C90D0C" stroke-width="0.1524" stroke-linecap="round" x1="55.327" y1="292.527" x2="69.728" y2="292.527"/>
		<text transform="matrix(1 0 0 1 76.3516 294.687)" font-family="'TimesNewRomanPSMT'" font-size="6">12/MISO</text>
		
			<line fill="none" stroke="#C90D0C" stroke-width="0.1524" stroke-linecap="round" x1="55.327" y1="299.727" x2="69.728" y2="299.727"/>
		<text transform="matrix(1 0 0 1 76.3516 301.8862)" font-family="'TimesNewRomanPSMT'" font-size="6">13/SCK/LED</text>
		
			<line fill="none" stroke="#C90D0C" stroke-width="0.1524" stroke-linecap="round" x1="55.327" y1="306.927" x2="69.728" y2="306.927"/>
		<text transform="matrix(1 0 0 1 76.3516 309.0874)" font-family="'TimesNewRomanPSMT'" font-size="6">14/A0</text>
		
			<line fill="none" stroke="#C90D0C" stroke-width="0.1524" stroke-linecap="round" x1="55.327" y1="314.127" x2="69.728" y2="314.127"/>
		<text transform="matrix(1 0 0 1 76.3516 316.2866)" font-family="'TimesNewRomanPSMT'" font-size="6">15/A1/T</text>
		
			<line fill="none" stroke="#C90D0C" stroke-width="0.1524" stroke-linecap="round" x1="55.327" y1="321.328" x2="69.728" y2="321.328"/>
		<text transform="matrix(1 0 0 1 76.3516 323.4858)" font-family="'TimesNewRomanPSMT'" font-size="6">16/A2/T</text>
		
			<line fill="none" stroke="#C90D0C" stroke-width="0.1524" stroke-linecap="round" x1="55.327" y1="328.527" x2="69.728" y2="328.527"/>
		<text transform="matrix(1 0 0 1 76.3516 330.687)" font-family="'TimesNewRomanPSMT'" font-size="6">17/A3/T</text>
		
			<line fill="none" stroke="#C90D0C" stroke-width="0.1524" stroke-linecap="round" x1="55.327" y1="335.727" x2="69.728" y2="335.727"/>
		<text transform="matrix(1 0 0 1 76.3516 337.8862)" font-family="'TimesNewRomanPSMT'" font-size="6">18/A4/T/SDA</text>
		
			<line fill="none" stroke="#C90D0C" stroke-width="0.1524" stroke-linecap="round" x1="55.327" y1="342.927" x2="69.728" y2="342.927"/>
		<text transform="matrix(1 0 0 1 76.3516 345.0874)" font-family="'TimesNewRomanPSMT'" font-size="6">19/A5/T/SCL</text>
		
			<line fill="none" stroke="#C90D0C" stroke-width="0.1524" stroke-linecap="round" x1="55.327" y1="350.127" x2="69.728" y2="350.127"/>
		<text transform="matrix(1 0 0 1 76.3516 352.2866)" font-family="'TimesNewRomanPSMT'" font-size="6">20/A6/PWM</text>
		
			<line fill="none" stroke="#C90D0C" stroke-width="0.1524" stroke-linecap="round" x1="55.327" y1="357.328" x2="69.728" y2="357.328"/>
		<text transform="matrix(1 0 0 1 76.3516 359.4858)" font-family="'TimesNewRomanPSMT'" font-size="6">21/A7/PWM</text>
		
			<line fill="none" stroke="#C90D0C" stroke-width="0.1524" stroke-linecap="round" x1="55.327" y1="364.527" x2="69.728" y2="364.527"/>
		<text transform="matrix(1 0 0 1 76.3516 366.687)" font-family="'TimesNewRomanPSMT'" font-size="6">22/A8/T/PWM</text>
		
			<line fill="none" stroke="#C90D0C" stroke-width="0.1524" stroke-linecap="round" x1="55.327" y1="371.727" x2="69.728" y2="371.727"/>
		<text transform="matrix(1 0 0 1 76.3516 373.8862)" font-family="'TimesNewRomanPSMT'" font-size="6">23/A9/T/PWM</text>
		
			<line fill="none" stroke="#C90D0C" stroke-width="0.1524" stroke-linecap="round" x1="184.927" y1="270.927" x2="170.528" y2="270.927"/>
		<text transform="matrix(1 0 0 1 150.1763 273.0874)" font-family="'TimesNewRomanPSMT'" font-size="6">AGND</text>
		
			<line fill="none" stroke="#C90D0C" stroke-width="0.1524" stroke-linecap="round" x1="184.927" y1="227.727" x2="170.528" y2="227.727"/>
		<text transform="matrix(1 0 0 1 153.6079 229.8862)" font-family="'TimesNewRomanPSMT'" font-size="6">GND</text>
		
			<line fill="none" stroke="#C90D0C" stroke-width="0.1524" stroke-linecap="round" x1="184.927" y1="206.127" x2="170.528" y2="206.127"/>
		<text transform="matrix(1 0 0 1 155.4575 208.2866)" font-family="'TimesNewRomanPSMT'" font-size="6">VIN</text>
		
			<line fill="none" stroke="#C90D0C" stroke-width="0.254" stroke-linecap="round" x1="69.728" y1="386.127" x2="170.528" y2="386.127"/>
		
			<line fill="none" stroke="#C90D0C" stroke-width="0.254" stroke-linecap="round" x1="170.528" y1="386.127" x2="170.528" y2="191.727"/>
		
			<line fill="none" stroke="#C90D0C" stroke-width="0.254" stroke-linecap="round" x1="170.528" y1="191.727" x2="69.728" y2="191.727"/>
		
			<line fill="none" stroke="#C90D0C" stroke-width="0.254" stroke-linecap="round" x1="69.728" y1="191.727" x2="69.728" y2="386.127"/>
		<path fill="none" stroke="#000000" stroke-width="0.2032" stroke-linecap="round" d="M104.575,184.815v2.184 M104.575,186.999
			h1.68 M106.255,186.999v-2.184 M109.253,187.839h-0.672 M107.909,187.167l0.672,0.672 M107.909,187.167v-1.68 M108.581,184.815
			l-0.672,0.672 M108.581,184.815h0.672 M110.624,186.159h1.008 M112.303,186.831l-0.672-0.672 M112.303,186.831v0.168
			 M110.624,186.999h1.68 M110.624,186.999v-0.84 M111.967,184.815l-1.344,1.344"/>
		<path fill="none" stroke="#000000" stroke-width="0.2032" stroke-linecap="round" d="M113.335,393.039v-3.023 M112.495,390.015
			h1.68 M116.981,393.039h-1.344 M115.637,393.039v-3.023 M115.637,390.015h1.344 M115.637,391.359h1.008 M119.789,393.039h-1.344
			 M118.445,393.039v-3.023 M118.445,390.015h1.344 M118.445,391.359h1.008 M121.243,393.039v-3.023 M121.243,390.015l1.68,3.023
			 M122.923,393.039v-3.023 M125.491,393.039l0.672-0.672 M124.483,392.619l1.008,0.42 M125.239,390.015l-0.672,0.672
			 M125.995,390.267l-0.756-0.252 M124.567,390.687l0.336,0.588 M126.163,392.367l-0.336-0.588 M125.827,391.779l-0.924-0.504
			 M127.447,390.015l1.008,1.428 M128.455,391.443l1.008-1.428 M128.455,393.039v-1.596 M130.699,393.375h1.344 M133.447,393.039
			h0.84 M134.287,393.039v-1.68 M133.447,390.015h1.008 M134.455,391.359v-1.344 M134.455,391.359h-0.672"/>
	</g>
</g>
</svg>
